<svg width="30" height="38" viewBox="0 0 30 38" fill="none" xmlns="http://www.w3.org/2000/svg">
<path d="M0.625189 35C1.85853 35.02 3.05483 35.4247 4.04706 36.1575C5.2365 37.0128 6.66027 37.4815 8.12519 37.5C9.51652 37.5169 10.8671 37.0306 11.9283 36.1306C12.7847 35.4008 13.8731 34.9999 14.9983 34.9999C16.1235 34.9999 17.2119 35.4008 18.0683 36.1306C19.1307 37.031 20.4827 37.5173 21.8752 37.5C23.34 37.4818 24.7636 37.0131 25.9527 36.1575C26.9454 35.4252 28.1418 35.0206 29.3752 35C29.502 35 29.6258 34.9615 29.7302 34.8895C29.8346 34.8175 29.9146 34.7155 29.9596 34.5969C30.0047 34.4784 30.0126 34.349 29.9823 34.2258C29.952 34.1027 29.885 33.9917 29.7902 33.9075L25.8439 30.3994C25.3821 29.9889 25.0124 29.4853 24.7593 28.9217C24.5061 28.3581 24.3752 27.7472 24.3752 27.1294V2.5C24.3752 1.83696 24.1118 1.20107 23.643 0.732233C23.1741 0.263392 22.5382 0 21.8752 0C21.2121 0 20.5763 0.263392 20.1074 0.732233C19.6386 1.20107 19.3752 1.83696 19.3752 2.5V5H10.6252V2.5C10.6252 1.83696 10.3618 1.20107 9.89296 0.732233C9.42412 0.263392 8.78823 0 8.12519 0C7.46215 0 6.82626 0.263392 6.35742 0.732233C5.88858 1.20107 5.62519 1.83696 5.62519 2.5V27.1294C5.62516 27.7472 5.49426 28.3581 5.2411 28.9217C4.98795 29.4853 4.61828 29.9889 4.15644 30.3994L0.210189 33.9075C0.115338 33.9917 0.0483302 34.1027 0.0180639 34.2258C-0.0122024 34.349 -0.00429559 34.4784 0.0407339 34.5969C0.0857635 34.7155 0.165785 34.8175 0.270175 34.8895C0.374564 34.9615 0.498383 35 0.625189 35ZM4.98706 31.3338C5.58054 30.8058 6.05559 30.1582 6.38101 29.4336C6.70642 28.709 6.87484 27.9237 6.87519 27.1294V2.5C6.87519 2.16848 7.00689 1.85054 7.24131 1.61612C7.47573 1.3817 7.79367 1.25 8.12519 1.25C8.45671 1.25 8.77465 1.3817 9.00907 1.61612C9.24349 1.85054 9.37519 2.16848 9.37519 2.5V5.625C9.37519 5.79076 9.44104 5.94973 9.55825 6.06694C9.67546 6.18415 9.83443 6.25 10.0002 6.25H20.0002C20.166 6.25 20.3249 6.18415 20.4421 6.06694C20.5593 5.94973 20.6252 5.79076 20.6252 5.625V2.5C20.6252 2.16848 20.7569 1.85054 20.9913 1.61612C21.2257 1.3817 21.5437 1.25 21.8752 1.25C22.2067 1.25 22.5247 1.3817 22.7591 1.61612C22.9935 1.85054 23.1252 2.16848 23.1252 2.5V27.1294C23.1255 27.9237 23.294 28.709 23.6194 29.4336C23.9448 30.1582 24.4198 30.8058 25.0133 31.3338L27.9089 33.9075C26.9758 34.1489 26.0918 34.5507 25.2964 35.095C24.304 35.8266 23.108 36.2304 21.8752 36.25C20.7468 36.2674 19.6522 35.8644 18.8046 35.1194C17.734 34.2342 16.3884 33.75 14.9993 33.75C13.6102 33.75 12.2645 34.2342 11.1939 35.1194C10.3472 35.8647 9.2531 36.2678 8.12519 36.25C6.89166 36.23 5.69516 35.8253 4.70269 35.0925C3.90794 34.5483 3.02456 34.1464 2.09206 33.905L4.98706 31.3338Z" fill="black"/>
<path d="M15.0002 20C16.1127 20 17.2002 19.6701 18.1253 19.052C19.0503 18.4339 19.7713 17.5554 20.197 16.5276C20.6227 15.4998 20.7341 14.3688 20.5171 13.2776C20.3001 12.1865 19.7643 11.1842 18.9777 10.3975C18.191 9.61086 17.1887 9.07513 16.0976 8.85809C15.0064 8.64104 13.8754 8.75244 12.8476 9.17818C11.8198 9.60392 10.9412 10.3249 10.3232 11.2499C9.70508 12.1749 9.37518 13.2625 9.37518 14.375C9.37684 15.8663 9.97 17.2961 11.0245 18.3506C12.0791 19.4052 13.5088 19.9983 15.0002 20ZM15.0002 10C15.8655 10 16.7113 10.2566 17.4308 10.7373C18.1503 11.2181 18.711 11.9013 19.0422 12.7008C19.3733 13.5002 19.4599 14.3799 19.2911 15.2285C19.1223 16.0772 18.7056 16.8567 18.0938 17.4686C17.4819 18.0804 16.7024 18.4971 15.8537 18.6659C15.005 18.8347 14.1254 18.7481 13.3259 18.417C12.5265 18.0858 11.8432 17.5251 11.3625 16.8056C10.8818 16.0862 10.6252 15.2403 10.6252 14.375C10.6265 13.2151 11.0879 12.1031 11.9081 11.2829C12.7282 10.4627 13.8403 10.0013 15.0002 10Z" fill="black"/>
<path d="M11.5914 20.7262L10.9089 21.7737C12.1266 22.5654 13.5478 22.9868 15.0002 22.9868C16.4526 22.9868 17.8738 22.5654 19.0914 21.7737L18.4089 20.7262C17.3899 21.3737 16.2075 21.7176 15.0002 21.7176C13.7928 21.7176 12.6104 21.3737 11.5914 20.7262Z" fill="black"/>
<path d="M15.0002 16.25C15.371 16.25 15.7335 16.14 16.0419 15.934C16.3502 15.728 16.5905 15.4351 16.7325 15.0925C16.8744 14.7499 16.9115 14.3729 16.8392 14.0092C16.7668 13.6455 16.5882 13.3114 16.326 13.0492C16.0638 12.787 15.7297 12.6084 15.366 12.536C15.0023 12.4637 14.6253 12.5008 14.2827 12.6427C13.94 12.7846 13.6472 13.025 13.4412 13.3333C13.2351 13.6416 13.1252 14.0042 13.1252 14.375C13.1252 14.8723 13.3227 15.3492 13.6744 15.7008C14.026 16.0525 14.5029 16.25 15.0002 16.25ZM15.0002 13.75C15.1238 13.75 15.2446 13.7867 15.3474 13.8553C15.4502 13.924 15.5303 14.0216 15.5776 14.1358C15.6249 14.25 15.6373 14.3757 15.6132 14.4969C15.5891 14.6182 15.5295 14.7295 15.4421 14.8169C15.3547 14.9044 15.2434 14.9639 15.1221 14.988C15.0009 15.0121 14.8752 14.9997 14.761 14.9524C14.6468 14.9051 14.5492 14.825 14.4805 14.7222C14.4118 14.6195 14.3752 14.4986 14.3752 14.375C14.3752 14.2092 14.441 14.0503 14.5582 13.9331C14.6755 13.8158 14.8344 13.75 15.0002 13.75Z" fill="black"/>
<path d="M21.2502 23.75H20.0002V28.295C19.9979 29.1161 20.1586 29.9295 20.4728 30.6881C20.787 31.4467 21.2486 32.1354 21.8308 32.7144L22.6833 33.5669L23.567 32.6831L22.7145 31.8306C22.2488 31.3674 21.8796 30.8164 21.6282 30.2095C21.3769 29.6026 21.2484 28.9519 21.2502 28.295V23.75Z" fill="black"/>
<path d="M21.2502 21.25H20.0002V22.5H21.2502V21.25Z" fill="black"/>
</svg>
