<svg width="32" height="32" viewBox="0 0 32 32" fill="none" xmlns="http://www.w3.org/2000/svg">
<path d="M31.888 15.1385C31.5627 13.754 30.5813 12.7505 29.5467 12.7505C29.424 12.7505 29.296 12.7666 29.1733 12.7934C29.072 12.8149 28.976 12.8524 28.8853 12.8954C27.7013 9.97606 25.8933 8.04417 24.0053 6.76698C24.1013 4.7063 25.2747 3.46667 27.2747 3.31104C27.52 4.22332 28.3413 4.90485 29.328 4.90485C30.5067 4.90485 31.4613 3.94427 31.4613 2.75831C31.4613 1.57234 30.5067 0.611765 29.328 0.611765C28.3307 0.611765 27.4987 1.30939 27.264 2.23777C24.88 2.40413 23.312 3.84768 22.992 6.14448C19.6907 4.30918 16.4533 4.27162 16.192 4.27162C15.9307 4.27162 12.4533 4.31992 9.024 6.36987C8.74133 3.84768 6.71467 1.85139 4.192 1.63137C3.968 0.697626 3.13067 0 2.13333 0C0.954667 0 0 0.960578 0 2.14654C0 3.33251 0.954667 4.29309 2.13333 4.29309C3.11467 4.29309 3.936 3.61692 4.18133 2.71001C6.32533 2.9354 8 4.75996 8 6.97626C8 7.0031 8.01067 7.02456 8.016 7.05139C5.61067 8.80619 3.39733 11.6611 2.53867 16.3406C2.528 16.3835 2.52267 16.4318 2.51733 16.4747C2.384 16.4372 2.24533 16.4103 2.10133 16.4103C0.922667 16.4103 0 17.6875 0 19.3189C0 20.9503 0.922667 22.2274 2.10133 22.2274C2.31467 22.2274 2.528 22.1738 2.73067 22.0826C3.104 23.5154 3.72267 24.8623 4.576 26.0429C6.272 28.3934 9.616 31.2 15.9147 31.2H16.2027H16.5067C22.8053 31.2 26.1493 28.3988 27.8453 26.0429C29.3813 23.9125 30.1653 21.2454 30.1013 18.4871C30.1173 18.4871 30.1387 18.4925 30.1547 18.4925C30.2773 18.4925 30.3947 18.4764 30.512 18.4495C31.6587 18.1812 32.2667 16.7216 31.888 15.1385ZM29.3333 1.68504C29.92 1.68504 30.4 2.16801 30.4 2.75831C30.4 3.34861 29.92 3.83158 29.3333 3.83158C28.7467 3.83158 28.2667 3.34861 28.2667 2.75831C28.2667 2.16801 28.7467 1.68504 29.3333 1.68504ZM2.13333 3.21981C1.54667 3.21981 1.06667 2.73684 1.06667 2.14654C1.06667 1.55624 1.54667 1.07327 2.13333 1.07327C2.72 1.07327 3.2 1.55624 3.2 2.14654C3.2 2.73684 2.72 3.21981 2.13333 3.21981ZM2.49067 20.9986C2.37867 21.0898 2.24533 21.1595 2.10133 21.1595C1.61067 21.1542 1.06667 20.4029 1.06667 19.3189C1.06667 18.2349 1.61067 17.4836 2.10133 17.4836C2.192 17.4836 2.28267 17.5104 2.368 17.5587C2.34133 17.8431 2.32533 18.1329 2.31467 18.4173C2.31467 18.4334 2.31467 18.4549 2.31467 18.471C2.30933 18.7125 2.30933 18.9486 2.31467 19.1847C2.31467 19.2599 2.32 19.3296 2.32 19.4047C2.33067 19.5979 2.34133 19.7911 2.35733 19.9843C2.36267 20.0594 2.368 20.1346 2.37867 20.2097C2.40533 20.4458 2.43733 20.6766 2.47467 20.9127C2.48533 20.9342 2.48533 20.9664 2.49067 20.9986ZM26.9813 25.4151C24.7253 28.5437 21.2053 30.1267 16.5067 30.1267H16.2027H15.9147C11.216 30.1267 7.696 28.5437 5.44 25.4151C4.34133 23.891 3.664 22.0557 3.45067 20.1185C3.44533 20.0755 3.44533 20.0326 3.44 19.9897C3.408 19.6838 3.392 19.3779 3.38667 19.0667C3.38133 18.9325 3.38667 18.7983 3.38667 18.6588C3.38667 18.4388 3.39733 18.2241 3.41333 18.0041C3.424 17.8485 3.43467 17.6875 3.45067 17.5319C3.48267 17.1992 3.52533 16.8611 3.584 16.5284C5.616 5.47368 15.7707 5.34489 16.2187 5.34489C16.608 5.34489 24.9653 5.45222 28.0533 13.6735L28.1493 13.9525C28.288 14.3389 28.4053 14.7306 28.512 15.1224C28.528 15.1814 28.544 15.2351 28.56 15.2941C28.6667 15.6966 28.7573 16.1098 28.8373 16.5284C28.9013 16.8826 28.944 17.2367 28.9813 17.5909C28.9867 17.6607 28.9973 17.7251 29.0027 17.7948C29.2213 20.5692 28.512 23.29 26.9813 25.4151ZM30.2667 17.4138C30.192 17.4299 30.1173 17.4299 30.032 17.4138C30.032 17.3924 30.0267 17.3763 30.0213 17.3548C29.984 17.0167 29.9413 16.6786 29.8773 16.3406V16.3352C29.8773 16.3298 29.872 16.3245 29.872 16.3191C29.7973 15.9059 29.7067 15.5141 29.6107 15.1278C29.6053 15.1063 29.6 15.0795 29.5893 15.058C29.488 14.6609 29.376 14.2799 29.2533 13.915C29.3067 13.8774 29.36 13.8506 29.4187 13.8398C29.904 13.7271 30.592 14.3174 30.8427 15.3853C31.0987 16.4372 30.7413 17.3011 30.2667 17.4138Z" fill="black"/>
<path d="M16.2667 14.0277C17.5922 14.0277 18.6667 13.3069 18.6667 12.4178C18.6667 11.5286 17.5922 10.8079 16.2667 10.8079C14.9412 10.8079 13.8667 11.5286 13.8667 12.4178C13.8667 13.3069 14.9412 14.0277 16.2667 14.0277Z" fill="black"/>
<path d="M9.33335 17.2475C10.6588 17.2475 11.7333 16.5267 11.7333 15.6376C11.7333 14.7485 10.6588 14.0277 9.33335 14.0277C8.00787 14.0277 6.93335 14.7485 6.93335 15.6376C6.93335 16.5267 8.00787 17.2475 9.33335 17.2475Z" fill="black"/>
<path d="M23.2 11.8811C22.3147 11.8811 21.4933 12.0957 20.8 12.4553C20.8 12.4392 20.8 12.4284 20.8 12.4177C20.8 10.3463 18.768 8.66125 16.2667 8.66125C13.7653 8.66125 11.7333 10.3463 11.7333 12.4177C11.7333 12.4338 11.7333 12.4445 11.7333 12.4553C11.0347 12.0904 10.2133 11.8811 9.33332 11.8811C6.83199 11.8811 4.79999 13.5661 4.79999 15.6375C4.79999 17.7089 6.83199 19.394 9.33332 19.394C11.8347 19.394 13.8667 17.7089 13.8667 15.6375C13.8667 15.6214 13.8667 15.6107 13.8667 15.6C14.5653 15.9649 15.3867 16.1742 16.2667 16.1742C17.1467 16.1742 17.9733 15.9595 18.6667 15.6C18.6667 15.6161 18.6667 15.6268 18.6667 15.6375C18.6667 17.7089 20.6987 19.394 23.2 19.394C25.7013 19.394 27.7333 17.7089 27.7333 15.6375C27.7333 13.5661 25.7013 11.8811 23.2 11.8811ZM9.33332 18.3207C7.42399 18.3207 5.86665 17.1186 5.86665 15.6375C5.86665 14.1564 7.42399 12.9543 9.33332 12.9543C11.2427 12.9543 12.8 14.1564 12.8 15.6375C12.8 17.1186 11.2427 18.3207 9.33332 18.3207ZM12.8 12.4177C12.8 10.9366 14.3573 9.73453 16.2667 9.73453C18.176 9.73453 19.7333 10.9366 19.7333 12.4177C19.7333 13.8988 18.176 15.1009 16.2667 15.1009C14.3573 15.1009 12.8 13.8988 12.8 12.4177ZM23.2 18.3207C21.2907 18.3207 19.7333 17.1186 19.7333 15.6375C19.7333 14.1564 21.2907 12.9543 23.2 12.9543C25.1093 12.9543 26.6667 14.1564 26.6667 15.6375C26.6667 17.1186 25.1093 18.3207 23.2 18.3207Z" fill="black"/>
<path d="M23.2 17.2475C24.5255 17.2475 25.6 16.5267 25.6 15.6376C25.6 14.7485 24.5255 14.0277 23.2 14.0277C21.8745 14.0277 20.8 14.7485 20.8 15.6376C20.8 16.5267 21.8745 17.2475 23.2 17.2475Z" fill="black"/>
<path d="M22.72 20.5746C22.4854 20.3976 22.1494 20.4459 21.9734 20.682C21.7974 20.9181 21.8454 21.2562 22.08 21.4333L22.832 22.0021C22.1547 22.8607 19.9787 25.3185 17.0187 25.7639C15.1467 26.0483 13.264 25.4688 11.424 24.0574L12.0534 23.5852C12.288 23.4081 12.336 23.07 12.16 22.8339C11.984 22.5978 11.648 22.5495 11.4134 22.7266L9.28002 24.3365C9.04536 24.5136 8.99736 24.8516 9.17336 25.0878C9.28002 25.2273 9.44002 25.3024 9.60002 25.3024C9.71202 25.3024 9.82402 25.2648 9.92002 25.1951L10.5494 24.7228C10.5654 24.7443 10.576 24.7658 10.6027 24.7819C12.384 26.1986 14.224 26.9123 16.0854 26.9123C16.4534 26.9123 16.8214 26.8855 17.1894 26.8265C20.576 26.3113 22.9494 23.6066 23.6907 22.6514L24.2187 23.0485C24.3147 23.1183 24.4267 23.1559 24.5387 23.1559C24.6987 23.1559 24.8587 23.0807 24.9654 22.9412C25.1414 22.7051 25.0934 22.367 24.8587 22.1899L22.72 20.5746Z" fill="black"/>
</svg>
