<svg width="25" height="42" viewBox="0 0 25 42" fill="none" xmlns="http://www.w3.org/2000/svg">
<path d="M23.1318 32.0747C21.8506 30.9197 18.5834 30.6997 18.8268 28.1697C18.8268 27.6335 18.4168 27.4272 18.0324 27.551C19.3109 25.3444 20.0958 22.8501 20.3259 20.2635C20.9537 12.1647 14.4065 7.69596 12.3693 0.47721C12.1259 -0.36154 10.8959 -0.00404004 11.0881 0.84846L11.1649 1.06846C11.0921 1.04579 11.0156 1.04074 10.9407 1.05366C10.8659 1.06658 10.7946 1.09716 10.7321 1.14319C10.6696 1.18922 10.6174 1.24956 10.5793 1.31986C10.5411 1.39015 10.518 1.46866 10.5115 1.54971C9.55056 8.42471 3.90025 14.5297 4.10525 21.556C4.29973 23.735 4.97619 25.8328 6.07837 27.6747C6.01519 27.7365 5.96699 27.8138 5.93796 27.9001C5.90894 27.9863 5.89996 28.0789 5.91181 28.1697C6.15525 30.7547 2.93931 30.9197 1.60681 32.0747C1.15358 32.4744 0.779506 32.9675 0.506645 33.5248C0.233784 34.0821 0.0676573 34.6924 0.0180603 35.3197C-0.23819 38.441 2.28587 39.871 4.19493 41.6585C4.29444 41.7701 4.42608 41.8425 4.56862 41.864C4.71116 41.8855 4.8563 41.8549 4.98063 41.7771C5.10497 41.6992 5.20126 41.5787 5.25397 41.435C5.30668 41.2912 5.31274 41.1326 5.27118 40.9847L4.48962 36.8597C5.24365 37.3526 5.96307 37.9041 6.64212 38.5097C7.0265 38.8535 7.78244 38.6747 7.73118 38.0285C7.6415 36.6535 6.88556 35.141 6.97525 33.9035C7.06494 32.666 6.74462 33.2572 7.65431 33.4497C8.01306 33.5185 8.30775 33.7935 8.67931 33.8485C8.89682 33.9069 9.12349 33.9144 9.34395 33.8706C9.5644 33.8267 9.77348 33.7324 9.957 33.5942C10.1405 33.4559 10.2942 33.2769 10.4075 33.0693C10.5209 32.8617 10.5913 32.6304 10.614 32.391C11.3152 32.5634 12.0375 32.6144 12.7537 32.5422C13.1906 32.4973 13.6208 32.3957 14.0349 32.2397C14.0374 32.4937 14.0935 32.7437 14.1991 32.971C14.3047 33.1983 14.457 33.3969 14.6445 33.5518C14.8321 33.7067 15.0499 33.8139 15.2817 33.8653C15.5134 33.9167 15.753 33.9109 15.9824 33.8485C16.4181 33.8485 17.5327 32.9685 17.8146 33.1747C17.6028 34.8123 17.312 36.437 16.9434 38.0422C16.9434 38.6885 17.6481 38.881 18.0324 38.5235C18.7115 37.9179 19.4309 37.3664 20.1849 36.8735L19.4034 40.9985C19.3618 41.1464 19.3679 41.305 19.4206 41.4487C19.4733 41.5925 19.5696 41.713 19.6939 41.7908C19.8183 41.8686 19.9634 41.8993 20.1059 41.8778C20.2485 41.8562 20.3801 41.7838 20.4796 41.6722C22.3759 39.8847 24.9127 38.441 24.6565 35.3335C24.6166 34.7089 24.4613 34.099 24.1995 33.5396C23.9377 32.9801 23.5748 32.4821 23.1318 32.0747ZM11.6006 2.44346C12.6098 4.76997 13.8422 6.9773 15.2777 9.02971C13.7146 10.5147 11.1521 10.4047 9.24306 9.74471C10.3431 7.43454 11.1572 4.98001 11.6646 2.44346H11.6006ZM9.384 32.0335C9.384 32.0335 6.924 31.3597 6.37306 31.3872C6.261 31.3865 6.15081 31.418 6.05393 31.4785C5.95705 31.5389 5.87701 31.6261 5.82212 31.731C5.24556 33.106 5.82212 34.8385 6.18087 36.406C5.45802 35.8427 4.70034 35.3327 3.91306 34.8797C3.80316 34.8198 3.67971 34.7945 3.55696 34.8066C3.43422 34.8188 3.31719 34.868 3.21938 34.9485C3.12158 35.029 3.04699 35.1376 3.00423 35.2617C2.96148 35.3858 2.95229 35.5203 2.97775 35.6497L3.69525 39.4722C2.9593 38.9279 2.33204 38.2314 1.85025 37.4235C0.299935 34.4947 2.42681 33.0922 4.63056 31.9235C5.18935 31.7081 5.69893 31.3674 6.12533 30.924C6.55174 30.4806 6.88516 29.9448 7.10337 29.3522L7.42369 29.8747C7.92019 30.6756 8.59364 31.3322 9.384 31.786C9.37032 31.8678 9.37032 31.9516 9.384 32.0335ZM6.34744 24.966C4.96369 21.8172 5.50181 19.0672 6.64212 15.9872C7.28275 14.2685 8.02587 12.6322 8.75619 10.996C11.0112 11.876 14.1246 11.8897 16.0593 10.1572C16.6359 11.0785 17.1868 11.9997 17.6993 12.976C18.9876 15.5247 19.4389 18.4647 18.9806 21.3222C18.6731 23.921 16.2771 30.0947 13.5481 30.9472C9.6915 32.226 7.69275 28.046 6.34744 24.966ZM23.3496 36.6672C22.888 37.8545 22.0843 38.8519 21.0562 39.5135L21.7865 35.6635C21.812 35.534 21.8028 35.3995 21.76 35.2754C21.7173 35.1514 21.6427 35.0428 21.5449 34.9623C21.4471 34.8817 21.33 34.8326 21.2073 34.8204C21.0845 34.8082 20.9611 34.8335 20.8512 34.8935C20.0639 35.3465 19.3062 35.8565 18.5834 36.4197C18.9677 34.8522 19.5187 33.1472 18.9421 31.7447C18.8872 31.6399 18.8072 31.5527 18.7103 31.4922C18.6134 31.4318 18.5032 31.4003 18.3912 31.401C17.8146 31.401 15.3162 32.4185 15.3802 32.0472C15.4065 31.8804 15.3746 31.7091 15.2906 31.566C16.2185 30.7113 16.9692 29.6574 17.4943 28.4722C17.4943 30.246 18.6346 31.2222 20.0568 31.9922C21.889 32.941 24.0799 33.9997 23.3496 36.6672Z" fill="black"/>
<path d="M14.0606 16.5922C13.4446 16.2502 12.754 16.0934 12.0618 16.1384C11.9836 16.0481 11.881 15.9863 11.7684 15.9616C11.6559 15.937 11.5389 15.9507 11.434 16.0009C11.3035 15.9711 11.1673 15.9957 11.053 16.0698C10.9388 16.1439 10.8551 16.2618 10.819 16.3997C9.60181 17.3072 8.48712 18.5584 8.93556 20.2909C9.15894 21.0671 9.64765 21.7239 10.3036 22.1294C10.9595 22.5349 11.7341 22.6592 12.4718 22.4772C12.8531 22.4271 13.2209 22.2947 13.5532 22.088C13.8854 21.8812 14.1753 21.6044 14.4051 21.2742C14.635 20.944 14.8002 20.5672 14.8907 20.1666C14.9812 19.7661 14.9952 19.35 14.9318 18.9434C14.7652 18.1734 14.6756 17.1147 14.0606 16.5922ZM12.5743 20.9922C12.3526 21.1077 12.1106 21.1715 11.8642 21.1793C11.6179 21.1871 11.3728 21.1387 11.1451 21.0374C10.9175 20.936 10.7125 20.784 10.5436 20.5913C10.3747 20.3986 10.2459 20.1697 10.1656 19.9197C9.87087 18.7922 10.8318 17.9947 11.639 17.4447C12.3052 17.5409 13.1765 17.5134 13.3815 18.0634C13.8556 19.2322 13.7787 20.4697 12.5871 20.9922H12.5743Z" fill="black"/>
</svg>
