<svg width="202" height="110" viewBox="0 0 202 110" fill="none" xmlns="http://www.w3.org/2000/svg">
<g filter="url(#filter0_d)">
<rect x="4" width="194" height="102" rx="12" fill="white"/>
<g filter="url(#filter1_d)">
<path d="M49 82C44.5904 82 40.2349 81.0279 36.2438 79.1529C32.2526 77.2779 28.7239 74.546 25.9088 71.1519C23.0937 67.7578 21.0614 63.7848 19.9567 59.5157C18.852 55.2467 18.7019 50.7866 19.5173 46.453L49 52L49 82Z" fill="#7FC2B6"/>
</g>
<g filter="url(#filter2_d)">
<path d="M44.9688 58H37.7983V56.7769L41.3506 52.9023C41.8633 52.3311 42.2271 51.855 42.4419 51.4741C42.6616 51.0884 42.7715 50.7026 42.7715 50.3169C42.7715 49.8091 42.6274 49.3989 42.3394 49.0864C42.0562 48.7739 41.6729 48.6177 41.1895 48.6177C40.6133 48.6177 40.1665 48.7935 39.8491 49.145C39.5317 49.4966 39.373 49.9775 39.373 50.5879H37.5933C37.5933 49.9385 37.7397 49.355 38.0327 48.8374C38.3306 48.3149 38.7529 47.9097 39.2998 47.6216C39.8516 47.3335 40.4863 47.1895 41.2041 47.1895C42.2393 47.1895 43.0547 47.4507 43.6504 47.9731C44.251 48.4907 44.5513 49.2085 44.5513 50.1265C44.5513 50.6587 44.3999 51.2178 44.0972 51.8037C43.7993 52.3848 43.3086 53.0464 42.625 53.7886L40.0176 56.5791H44.9688V58ZM53.04 50.1484C53.04 50.6709 52.9058 51.1372 52.6372 51.5474C52.3687 51.9526 52.0024 52.2725 51.5386 52.5068C52.0952 52.7656 52.5225 53.1196 52.8203 53.5688C53.123 54.0181 53.2744 54.5259 53.2744 55.0923C53.2744 56.0298 52.957 56.7744 52.3223 57.3262C51.6875 57.873 50.8428 58.1465 49.7881 58.1465C48.7285 58.1465 47.8789 57.8706 47.2393 57.3188C46.6045 56.7671 46.2871 56.0249 46.2871 55.0923C46.2871 54.521 46.4385 54.0083 46.7412 53.5542C47.0439 53.1001 47.4688 52.751 48.0156 52.5068C47.5566 52.2725 47.1929 51.9526 46.9243 51.5474C46.6606 51.1372 46.5288 50.6709 46.5288 50.1484C46.5288 49.2402 46.8218 48.52 47.4077 47.9878C47.9937 47.4556 48.7847 47.1895 49.7808 47.1895C50.7817 47.1895 51.5752 47.4556 52.1611 47.9878C52.7471 48.52 53.04 49.2402 53.04 50.1484ZM51.4946 55.0044C51.4946 54.4771 51.3359 54.0522 51.0186 53.73C50.7061 53.4028 50.291 53.2393 49.7734 53.2393C49.2559 53.2393 48.8408 53.4004 48.5283 53.7227C48.2207 54.0449 48.0669 54.4722 48.0669 55.0044C48.0669 55.5269 48.2183 55.9443 48.521 56.2568C48.8286 56.5693 49.251 56.7256 49.7881 56.7256C50.3252 56.7256 50.7427 56.5742 51.0405 56.2715C51.3433 55.9688 51.4946 55.5464 51.4946 55.0044ZM51.2676 50.2144C51.2676 49.7505 51.1333 49.3696 50.8647 49.0718C50.5962 48.769 50.2349 48.6177 49.7808 48.6177C49.3267 48.6177 48.9678 48.7617 48.7041 49.0498C48.4404 49.333 48.3086 49.7212 48.3086 50.2144C48.3086 50.7026 48.4404 51.0908 48.7041 51.3789C48.9727 51.667 49.334 51.811 49.7881 51.811C50.2422 51.811 50.6011 51.667 50.8647 51.3789C51.1333 51.0908 51.2676 50.7026 51.2676 50.2144ZM54.7759 49.3867C54.7759 48.7422 54.9834 48.2148 55.3984 47.8047C55.8135 47.3896 56.3579 47.1821 57.0317 47.1821C57.7153 47.1821 58.2622 47.3896 58.6724 47.8047C59.0874 48.2148 59.2949 48.7544 59.2949 49.4233V49.9507C59.2949 50.5903 59.0874 51.1152 58.6724 51.5254C58.2622 51.9355 57.7202 52.1406 57.0464 52.1406C56.3872 52.1406 55.8428 51.9404 55.4131 51.54C54.9883 51.1348 54.7759 50.5903 54.7759 49.9067V49.3867ZM56.021 49.9507C56.021 50.2876 56.1138 50.561 56.2993 50.771C56.4897 50.9761 56.7388 51.0786 57.0464 51.0786C57.3491 51.0786 57.5933 50.9761 57.7788 50.771C57.9644 50.561 58.0571 50.2778 58.0571 49.9214V49.3867C58.0571 49.0498 57.9619 48.7764 57.7715 48.5664C57.5859 48.3564 57.3394 48.2515 57.0317 48.2515C56.7241 48.2515 56.4775 48.3589 56.292 48.5737C56.1113 48.7837 56.021 49.062 56.021 49.4087V49.9507ZM59.9028 55.3853C59.9028 54.731 60.1152 54.2012 60.54 53.7959C60.9648 53.3906 61.5068 53.188 62.166 53.188C62.8301 53.188 63.3721 53.3906 63.792 53.7959C64.2168 54.2012 64.4292 54.748 64.4292 55.4365V55.9565C64.4292 56.5913 64.2241 57.1162 63.814 57.5312C63.4087 57.9414 62.8643 58.1465 62.1807 58.1465C61.4971 58.1465 60.9453 57.9438 60.5254 57.5386C60.1104 57.1284 59.9028 56.5889 59.9028 55.9199V55.3853ZM61.1479 55.9565C61.1479 56.2886 61.2432 56.562 61.4336 56.7769C61.6289 56.9868 61.8779 57.0918 62.1807 57.0918C62.4932 57.0918 62.7373 56.9917 62.9131 56.7915C63.0938 56.5864 63.1841 56.3008 63.1841 55.9346V55.3853C63.1841 55.0435 63.0889 54.77 62.8984 54.5649C62.708 54.3599 62.4639 54.2573 62.166 54.2573C61.8633 54.2573 61.6167 54.3599 61.4263 54.5649C61.2407 54.77 61.1479 55.0532 61.1479 55.4146V55.9565ZM57.4126 57.2017L56.4971 56.6743L61.7046 48.3394L62.6201 48.8667L57.4126 57.2017Z" fill="#000B0D"/>
</g>
<g filter="url(#filter3_d)">
<circle cx="49" cy="52" r="29.5" stroke="#000B0D"/>
</g>
<path d="M95.5518 74.6602H90.1904L88.9863 78H87.2461L92.1328 65.2031H93.6094L98.5049 78H96.7734L95.5518 74.6602ZM90.7002 73.2715H95.0508L92.8711 67.2861L90.7002 73.2715ZM101.739 78H100.113V64.5H101.739V78ZM106.116 78H104.49V68.4902H106.116V78ZM104.358 65.9678C104.358 65.7041 104.438 65.4814 104.596 65.2998C104.76 65.1182 105 65.0273 105.316 65.0273C105.633 65.0273 105.873 65.1182 106.037 65.2998C106.201 65.4814 106.283 65.7041 106.283 65.9678C106.283 66.2314 106.201 66.4512 106.037 66.627C105.873 66.8027 105.633 66.8906 105.316 66.8906C105 66.8906 104.76 66.8027 104.596 66.627C104.438 66.4512 104.358 66.2314 104.358 65.9678ZM112.673 78.1758C111.384 78.1758 110.335 77.7539 109.526 76.9102C108.718 76.0605 108.313 74.9268 108.313 73.5088V73.21C108.313 72.2666 108.492 71.4258 108.85 70.6875C109.213 69.9434 109.717 69.3633 110.361 68.9473C111.012 68.5254 111.715 68.3145 112.471 68.3145C113.707 68.3145 114.668 68.7217 115.354 69.5361C116.039 70.3506 116.382 71.5166 116.382 73.0342V73.7109H109.939C109.963 74.6484 110.235 75.4072 110.757 75.9873C111.284 76.5615 111.952 76.8486 112.761 76.8486C113.335 76.8486 113.821 76.7314 114.22 76.4971C114.618 76.2627 114.967 75.9521 115.266 75.5654L116.259 76.3389C115.462 77.5635 114.267 78.1758 112.673 78.1758ZM112.471 69.6504C111.814 69.6504 111.264 69.8906 110.818 70.3711C110.373 70.8457 110.098 71.5137 109.992 72.375H114.756V72.252C114.709 71.4258 114.486 70.7871 114.088 70.3359C113.689 69.8789 113.15 69.6504 112.471 69.6504ZM119.81 68.4902L119.862 69.6855C120.589 68.7715 121.538 68.3145 122.71 68.3145C124.72 68.3145 125.733 69.4482 125.751 71.7158V78H124.125V71.707C124.119 71.0215 123.961 70.5146 123.65 70.1865C123.346 69.8584 122.868 69.6943 122.218 69.6943C121.69 69.6943 121.228 69.835 120.829 70.1162C120.431 70.3975 120.12 70.7666 119.897 71.2236V78H118.271V68.4902H119.81ZM142.758 78H141.062L134.619 68.1387V78H132.923V65.2031H134.619L141.079 75.1084V65.2031H142.758V78ZM149.446 78.1758C148.157 78.1758 147.108 77.7539 146.3 76.9102C145.491 76.0605 145.087 74.9268 145.087 73.5088V73.21C145.087 72.2666 145.266 71.4258 145.623 70.6875C145.986 69.9434 146.49 69.3633 147.135 68.9473C147.785 68.5254 148.488 68.3145 149.244 68.3145C150.48 68.3145 151.441 68.7217 152.127 69.5361C152.812 70.3506 153.155 71.5166 153.155 73.0342V73.7109H146.713C146.736 74.6484 147.009 75.4072 147.53 75.9873C148.058 76.5615 148.726 76.8486 149.534 76.8486C150.108 76.8486 150.595 76.7314 150.993 76.4971C151.392 76.2627 151.74 75.9521 152.039 75.5654L153.032 76.3389C152.235 77.5635 151.04 78.1758 149.446 78.1758ZM149.244 69.6504C148.588 69.6504 148.037 69.8906 147.592 70.3711C147.146 70.8457 146.871 71.5137 146.766 72.375H151.529V72.252C151.482 71.4258 151.26 70.7871 150.861 70.3359C150.463 69.8789 149.924 69.6504 149.244 69.6504ZM163.465 75.7588L165.293 68.4902H166.919L164.15 78H162.832L160.521 70.793L158.271 78H156.952L154.192 68.4902H155.81L157.682 75.6094L159.896 68.4902H161.206L163.465 75.7588ZM174.117 75.4775C174.117 75.0381 173.95 74.6982 173.616 74.458C173.288 74.2119 172.711 74.001 171.885 73.8252C171.064 73.6494 170.411 73.4385 169.925 73.1924C169.444 72.9463 169.087 72.6533 168.853 72.3135C168.624 71.9736 168.51 71.5693 168.51 71.1006C168.51 70.3213 168.838 69.6621 169.494 69.123C170.156 68.584 171 68.3145 172.025 68.3145C173.104 68.3145 173.977 68.5928 174.645 69.1494C175.318 69.7061 175.655 70.418 175.655 71.2852H174.021C174.021 70.8398 173.83 70.4561 173.449 70.1338C173.074 69.8115 172.6 69.6504 172.025 69.6504C171.434 69.6504 170.971 69.7793 170.637 70.0371C170.303 70.2949 170.136 70.6318 170.136 71.0479C170.136 71.4404 170.291 71.7363 170.602 71.9355C170.912 72.1348 171.472 72.3252 172.28 72.5068C173.095 72.6885 173.754 72.9053 174.258 73.1572C174.762 73.4092 175.134 73.7139 175.374 74.0713C175.62 74.4229 175.743 74.8535 175.743 75.3633C175.743 76.2129 175.403 76.8955 174.724 77.4111C174.044 77.9209 173.162 78.1758 172.078 78.1758C171.316 78.1758 170.643 78.041 170.057 77.7715C169.471 77.502 169.011 77.127 168.677 76.6465C168.349 76.1602 168.185 75.6357 168.185 75.0732H169.811C169.84 75.6182 170.057 76.0518 170.461 76.374C170.871 76.6904 171.41 76.8486 172.078 76.8486C172.693 76.8486 173.186 76.7256 173.555 76.4795C173.93 76.2275 174.117 75.8936 174.117 75.4775Z" fill="#000B0D"/>
<path d="M142.262 50.1513C140.981 48.9963 137.714 48.7763 137.957 46.2463C137.957 45.71 137.547 45.5037 137.163 45.6275C138.442 43.4209 139.227 40.9266 139.457 38.34C140.084 30.2413 133.537 25.7725 131.5 18.5537C131.257 17.715 130.027 18.0725 130.219 18.925L130.296 19.145C130.223 19.1223 130.146 19.1173 130.071 19.1302C129.997 19.1431 129.925 19.1737 129.863 19.2197C129.8 19.2658 129.748 19.3261 129.71 19.3964C129.672 19.4667 129.649 19.5452 129.642 19.6262C128.681 26.5012 123.031 32.6062 123.236 39.6325C123.43 41.8116 124.107 43.9093 125.209 45.7513C125.146 45.813 125.098 45.8904 125.069 45.9766C125.04 46.0629 125.031 46.1554 125.042 46.2463C125.286 48.8313 122.07 48.9963 120.737 50.1513C120.284 50.551 119.91 51.044 119.637 51.6013C119.364 52.1586 119.198 52.7689 119.149 53.3963C118.892 56.5175 121.417 57.9475 123.326 59.735C123.425 59.8466 123.557 59.919 123.699 59.9405C123.842 59.9621 123.987 59.9314 124.111 59.8536C124.236 59.7758 124.332 59.6553 124.385 59.5115C124.437 59.3678 124.443 59.2091 124.402 59.0613L123.62 54.9363C124.374 55.4292 125.094 55.9807 125.773 56.5863C126.157 56.93 126.913 56.7513 126.862 56.105C126.772 54.73 126.016 53.2175 126.106 51.98C126.196 50.7425 125.875 51.3338 126.785 51.5263C127.144 51.595 127.438 51.87 127.81 51.925C128.027 51.9834 128.254 51.991 128.475 51.9471C128.695 51.9032 128.904 51.8089 129.088 51.6707C129.271 51.5324 129.425 51.3534 129.538 51.1458C129.652 50.9382 129.722 50.7069 129.745 50.4675C130.446 50.6399 131.168 50.691 131.884 50.6188C132.321 50.5738 132.751 50.4723 133.166 50.3162C133.168 50.5702 133.224 50.8203 133.33 51.0475C133.435 51.2748 133.588 51.4734 133.775 51.6283C133.963 51.7832 134.181 51.8904 134.412 51.9418C134.644 51.9932 134.884 51.9875 135.113 51.925C135.549 51.925 136.663 51.045 136.945 51.2513C136.734 52.8888 136.443 54.5135 136.074 56.1188C136.074 56.765 136.779 56.9575 137.163 56.6C137.842 55.9944 138.562 55.4429 139.316 54.95L138.534 59.075C138.492 59.2229 138.499 59.3815 138.551 59.5253C138.604 59.669 138.7 59.7895 138.825 59.8673C138.949 59.9452 139.094 59.9758 139.237 59.9543C139.379 59.9328 139.511 59.8604 139.61 59.7488C141.507 57.9613 144.043 56.5175 143.787 53.41C143.747 52.7854 143.592 52.1756 143.33 51.6161C143.068 51.0566 142.705 50.5586 142.262 50.1513ZM130.731 20.52C131.74 22.8465 132.973 25.0538 134.408 27.1062C132.845 28.5912 130.283 28.4812 128.374 27.8212C129.474 25.5111 130.288 23.0565 130.795 20.52H130.731ZM128.515 50.11C128.515 50.11 126.055 49.4363 125.504 49.4638C125.392 49.4631 125.281 49.4946 125.185 49.555C125.088 49.6155 125.008 49.7027 124.953 49.8075C124.376 51.1825 124.953 52.915 125.312 54.4825C124.589 53.9192 123.831 53.4093 123.044 52.9562C122.934 52.8963 122.81 52.871 122.688 52.8832C122.565 52.8954 122.448 52.9445 122.35 53.0251C122.252 53.1056 122.178 53.2141 122.135 53.3382C122.092 53.4623 122.083 53.5968 122.108 53.7262L122.826 57.5488C122.09 57.0044 121.463 56.3079 120.981 55.5C119.431 52.5713 121.557 51.1688 123.761 50C124.32 49.7846 124.83 49.4439 125.256 49.0005C125.682 48.5572 126.016 48.0213 126.234 47.4287L126.554 47.9513C127.051 48.7521 127.724 49.4087 128.515 49.8625C128.501 49.9443 128.501 50.0282 128.515 50.11ZM125.478 43.0425C124.094 39.8938 124.632 37.1437 125.773 34.0637C126.413 32.345 127.157 30.7087 127.887 29.0725C130.142 29.9525 133.255 29.9662 135.19 28.2337C135.767 29.155 136.317 30.0763 136.83 31.0525C138.118 33.6013 138.57 36.5412 138.111 39.3988C137.804 41.9975 135.408 48.1713 132.679 49.0238C128.822 50.3025 126.823 46.1225 125.478 43.0425ZM142.48 54.7438C142.019 55.931 141.215 56.9285 140.187 57.59L140.917 53.74C140.943 53.6106 140.933 53.476 140.891 53.352C140.848 53.2279 140.773 53.1193 140.676 53.0388C140.578 52.9583 140.461 52.9091 140.338 52.8969C140.215 52.8848 140.092 52.9101 139.982 52.97C139.195 53.4231 138.437 53.933 137.714 54.4963C138.098 52.9288 138.649 51.2238 138.073 49.8213C138.018 49.7164 137.938 49.6292 137.841 49.5688C137.744 49.5083 137.634 49.4768 137.522 49.4775C136.945 49.4775 134.447 50.495 134.511 50.1238C134.537 49.957 134.505 49.7856 134.421 49.6425C135.349 48.7878 136.1 47.7339 136.625 46.5487C136.625 48.3225 137.765 49.2987 139.187 50.0688C141.02 51.0175 143.211 52.0763 142.48 54.7438Z" fill="#000B0D"/>
<path d="M133.191 34.6687C132.575 34.3268 131.885 34.17 131.192 34.215C131.114 34.1247 131.012 34.0629 130.899 34.0382C130.787 34.0136 130.67 34.0273 130.565 34.0775C130.434 34.0477 130.298 34.0723 130.184 34.1464C130.069 34.2204 129.986 34.3384 129.95 34.4762C128.732 35.3837 127.618 36.635 128.066 38.3675C128.29 39.1437 128.778 39.8005 129.434 40.206C130.09 40.6115 130.865 40.7357 131.602 40.5537C131.984 40.5037 132.352 40.3713 132.684 40.1645C133.016 39.9578 133.306 39.681 133.536 39.3507C133.766 39.0205 133.931 38.6438 134.021 38.2432C134.112 37.8426 134.126 37.4265 134.062 37.02C133.896 36.25 133.806 35.1912 133.191 34.6687ZM131.705 39.0687C131.483 39.1843 131.241 39.2481 130.995 39.2559C130.749 39.2637 130.503 39.2153 130.276 39.114C130.048 39.0126 129.843 38.8606 129.674 38.6679C129.505 38.4752 129.377 38.2463 129.296 37.9962C129.002 36.8687 129.962 36.0712 130.77 35.5212C131.436 35.6175 132.307 35.59 132.512 36.14C132.986 37.3087 132.909 38.5462 131.718 39.0687H131.705Z" fill="#000B0D"/>
</g>
<defs>
<filter id="filter0_d" x="0" y="0" width="202" height="110" filterUnits="userSpaceOnUse" color-interpolation-filters="sRGB">
<feFlood flood-opacity="0" result="BackgroundImageFix"/>
<feColorMatrix in="SourceAlpha" type="matrix" values="0 0 0 0 0 0 0 0 0 0 0 0 0 0 0 0 0 0 127 0"/>
<feOffset dy="4"/>
<feGaussianBlur stdDeviation="2"/>
<feColorMatrix type="matrix" values="0 0 0 0 0 0 0 0 0 0 0 0 0 0 0 0 0 0 0.25 0"/>
<feBlend mode="normal" in2="BackgroundImageFix" result="effect1_dropShadow"/>
<feBlend mode="normal" in="SourceGraphic" in2="effect1_dropShadow" result="shape"/>
</filter>
<filter id="filter1_d" x="15" y="46.453" width="38" height="43.547" filterUnits="userSpaceOnUse" color-interpolation-filters="sRGB">
<feFlood flood-opacity="0" result="BackgroundImageFix"/>
<feColorMatrix in="SourceAlpha" type="matrix" values="0 0 0 0 0 0 0 0 0 0 0 0 0 0 0 0 0 0 127 0"/>
<feOffset dy="4"/>
<feGaussianBlur stdDeviation="2"/>
<feColorMatrix type="matrix" values="0 0 0 0 0 0 0 0 0 0 0 0 0 0 0 0 0 0 0.25 0"/>
<feBlend mode="normal" in2="BackgroundImageFix" result="effect1_dropShadow"/>
<feBlend mode="normal" in="SourceGraphic" in2="effect1_dropShadow" result="shape"/>
</filter>
<filter id="filter2_d" x="33.5933" y="47.1821" width="34.8359" height="18.9644" filterUnits="userSpaceOnUse" color-interpolation-filters="sRGB">
<feFlood flood-opacity="0" result="BackgroundImageFix"/>
<feColorMatrix in="SourceAlpha" type="matrix" values="0 0 0 0 0 0 0 0 0 0 0 0 0 0 0 0 0 0 127 0"/>
<feOffset dy="4"/>
<feGaussianBlur stdDeviation="2"/>
<feColorMatrix type="matrix" values="0 0 0 0 0 0 0 0 0 0 0 0 0 0 0 0 0 0 0.25 0"/>
<feBlend mode="normal" in2="BackgroundImageFix" result="effect1_dropShadow"/>
<feBlend mode="normal" in="SourceGraphic" in2="effect1_dropShadow" result="shape"/>
</filter>
<filter id="filter3_d" x="15" y="22" width="68" height="68" filterUnits="userSpaceOnUse" color-interpolation-filters="sRGB">
<feFlood flood-opacity="0" result="BackgroundImageFix"/>
<feColorMatrix in="SourceAlpha" type="matrix" values="0 0 0 0 0 0 0 0 0 0 0 0 0 0 0 0 0 0 127 0"/>
<feOffset dy="4"/>
<feGaussianBlur stdDeviation="2"/>
<feColorMatrix type="matrix" values="0 0 0 0 0 0 0 0 0 0 0 0 0 0 0 0 0 0 0.25 0"/>
<feBlend mode="normal" in2="BackgroundImageFix" result="effect1_dropShadow"/>
<feBlend mode="normal" in="SourceGraphic" in2="effect1_dropShadow" result="shape"/>
</filter>
</defs>
</svg>
