<svg width="202" height="110" viewBox="0 0 202 110" fill="none" xmlns="http://www.w3.org/2000/svg">
<g filter="url(#filter0_d)">
<rect x="4" width="194" height="102" rx="12" fill="white"/>
<g filter="url(#filter1_d)">
<path d="M49 82C44.264 82 39.5954 80.8787 35.376 78.728C31.1565 76.5772 27.5063 73.4581 24.7238 69.6257C21.9413 65.7933 20.1057 61.3567 19.3671 56.6786C18.6285 52.0006 19.0079 47.2142 20.4743 42.711C21.9407 38.2078 24.4524 34.1158 27.804 30.7696C31.1555 27.4235 35.2516 24.9184 39.7572 23.4593C44.2628 22.0002 49.0498 21.6285 53.7266 22.3747C58.4034 23.1208 62.8371 24.9637 66.665 27.7523L49 52L49 82Z" fill="#7FC2B6"/>
</g>
<g filter="url(#filter2_d)">
<path d="M43.3354 47.2847V48.7568H43.1157C42.1196 48.7715 41.3237 49.0449 40.728 49.5771C40.1323 50.1094 39.7783 50.8638 39.666 51.8403C40.2373 51.2397 40.9673 50.9395 41.856 50.9395C42.7983 50.9395 43.5405 51.2715 44.0825 51.9355C44.6294 52.5996 44.9028 53.4565 44.9028 54.5063C44.9028 55.5903 44.583 56.4692 43.9434 57.1431C43.3086 57.812 42.4736 58.1465 41.4385 58.1465C40.374 58.1465 39.5098 57.7534 38.8457 56.9673C38.1865 56.1812 37.8569 55.1509 37.8569 53.8765V53.2686C37.8569 51.3984 38.311 49.9336 39.2192 48.874C40.1323 47.8145 41.4434 47.2847 43.1523 47.2847H43.3354ZM41.4238 52.375C41.0332 52.375 40.6743 52.4849 40.3472 52.7046C40.0249 52.9243 39.7881 53.2173 39.6367 53.5835V54.1255C39.6367 54.9165 39.8027 55.5464 40.1348 56.0151C40.4668 56.479 40.8965 56.7109 41.4238 56.7109C41.9512 56.7109 42.3687 56.5132 42.6763 56.1177C42.9839 55.7222 43.1377 55.2021 43.1377 54.5576C43.1377 53.9131 42.9814 53.3882 42.6689 52.9829C42.3564 52.5776 41.9414 52.375 41.4238 52.375ZM53.2744 53.5103C53.2744 55.0435 52.9863 56.2007 52.4102 56.9819C51.8389 57.7583 50.9673 58.1465 49.7954 58.1465C48.6431 58.1465 47.7739 57.7681 47.188 57.0112C46.6069 56.2495 46.3091 55.124 46.2944 53.6348V51.7891C46.2944 50.2559 46.5801 49.106 47.1514 48.3394C47.7275 47.5728 48.604 47.1895 49.7808 47.1895C50.9478 47.1895 51.8169 47.563 52.3882 48.3101C52.9644 49.0571 53.2598 50.1753 53.2744 51.6646V53.5103ZM51.4946 51.5181C51.4946 50.5171 51.3579 49.7847 51.0845 49.3208C50.811 48.8521 50.3765 48.6177 49.7808 48.6177C49.1997 48.6177 48.7725 48.8398 48.499 49.2842C48.2256 49.7236 48.0815 50.4121 48.0669 51.3496V53.7666C48.0669 54.7627 48.2061 55.5049 48.4844 55.9932C48.7627 56.4814 49.1997 56.7256 49.7954 56.7256C50.3667 56.7256 50.7891 56.501 51.0625 56.0518C51.3359 55.5977 51.48 54.8896 51.4946 53.9277V51.5181ZM54.7759 49.3867C54.7759 48.7422 54.9834 48.2148 55.3984 47.8047C55.8135 47.3896 56.3579 47.1821 57.0317 47.1821C57.7153 47.1821 58.2622 47.3896 58.6724 47.8047C59.0874 48.2148 59.2949 48.7544 59.2949 49.4233V49.9507C59.2949 50.5903 59.0874 51.1152 58.6724 51.5254C58.2622 51.9355 57.7202 52.1406 57.0464 52.1406C56.3872 52.1406 55.8428 51.9404 55.4131 51.54C54.9883 51.1348 54.7759 50.5903 54.7759 49.9067V49.3867ZM56.021 49.9507C56.021 50.2876 56.1138 50.561 56.2993 50.771C56.4897 50.9761 56.7388 51.0786 57.0464 51.0786C57.3491 51.0786 57.5933 50.9761 57.7788 50.771C57.9644 50.561 58.0571 50.2778 58.0571 49.9214V49.3867C58.0571 49.0498 57.9619 48.7764 57.7715 48.5664C57.5859 48.3564 57.3394 48.2515 57.0317 48.2515C56.7241 48.2515 56.4775 48.3589 56.292 48.5737C56.1113 48.7837 56.021 49.062 56.021 49.4087V49.9507ZM59.9028 55.3853C59.9028 54.731 60.1152 54.2012 60.54 53.7959C60.9648 53.3906 61.5068 53.188 62.166 53.188C62.8301 53.188 63.3721 53.3906 63.792 53.7959C64.2168 54.2012 64.4292 54.748 64.4292 55.4365V55.9565C64.4292 56.5913 64.2241 57.1162 63.814 57.5312C63.4087 57.9414 62.8643 58.1465 62.1807 58.1465C61.4971 58.1465 60.9453 57.9438 60.5254 57.5386C60.1104 57.1284 59.9028 56.5889 59.9028 55.9199V55.3853ZM61.1479 55.9565C61.1479 56.2886 61.2432 56.562 61.4336 56.7769C61.6289 56.9868 61.8779 57.0918 62.1807 57.0918C62.4932 57.0918 62.7373 56.9917 62.9131 56.7915C63.0938 56.5864 63.1841 56.3008 63.1841 55.9346V55.3853C63.1841 55.0435 63.0889 54.77 62.8984 54.5649C62.708 54.3599 62.4639 54.2573 62.166 54.2573C61.8633 54.2573 61.6167 54.3599 61.4263 54.5649C61.2407 54.77 61.1479 55.0532 61.1479 55.4146V55.9565ZM57.4126 57.2017L56.4971 56.6743L61.7046 48.3394L62.6201 48.8667L57.4126 57.2017Z" fill="#000B0D"/>
</g>
<g filter="url(#filter3_d)">
<circle cx="49" cy="52" r="29.5" stroke="#000B0D"/>
</g>
<path d="M96.5518 74.6602H91.1904L89.9863 78H88.2461L93.1328 65.2031H94.6094L99.5049 78H97.7734L96.5518 74.6602ZM91.7002 73.2715H96.0508L93.8711 67.2861L91.7002 73.2715ZM109.023 73.3506C109.023 74.8037 108.689 75.9727 108.021 76.8574C107.354 77.7363 106.457 78.1758 105.332 78.1758C104.131 78.1758 103.202 77.751 102.546 76.9014L102.467 78H100.973V64.5H102.599V69.5361C103.255 68.7217 104.16 68.3145 105.314 68.3145C106.469 68.3145 107.374 68.751 108.03 69.624C108.692 70.4971 109.023 71.6924 109.023 73.21V73.3506ZM107.397 73.166C107.397 72.0586 107.184 71.2031 106.756 70.5996C106.328 69.9961 105.713 69.6943 104.91 69.6943C103.838 69.6943 103.067 70.1924 102.599 71.1885V75.3018C103.097 76.2979 103.873 76.7959 104.928 76.7959C105.707 76.7959 106.313 76.4941 106.747 75.8906C107.181 75.2871 107.397 74.3789 107.397 73.166ZM110.685 73.166C110.685 71.707 111.03 70.5352 111.722 69.6504C112.413 68.7598 113.318 68.3145 114.438 68.3145C115.551 68.3145 116.433 68.6953 117.083 69.457V64.5H118.709V78H117.215L117.136 76.9805C116.485 77.7773 115.58 78.1758 114.42 78.1758C113.318 78.1758 112.419 77.7246 111.722 76.8223C111.03 75.9199 110.685 74.7422 110.685 73.2891V73.166ZM112.311 73.3506C112.311 74.4287 112.533 75.2725 112.979 75.8818C113.424 76.4912 114.039 76.7959 114.824 76.7959C115.855 76.7959 116.608 76.333 117.083 75.4072V71.0391C116.597 70.1426 115.85 69.6943 114.842 69.6943C114.045 69.6943 113.424 70.002 112.979 70.6172C112.533 71.2324 112.311 72.1436 112.311 73.3506ZM127.111 77.0596C126.479 77.8037 125.55 78.1758 124.325 78.1758C123.312 78.1758 122.538 77.8828 122.005 77.2969C121.478 76.7051 121.211 75.832 121.205 74.6777V68.4902H122.831V74.6338C122.831 76.0752 123.417 76.7959 124.589 76.7959C125.831 76.7959 126.657 76.333 127.067 75.4072V68.4902H128.693V78H127.146L127.111 77.0596ZM134.986 76.8486C135.566 76.8486 136.073 76.6729 136.507 76.3213C136.94 75.9697 137.181 75.5303 137.228 75.0029H138.766C138.736 75.5479 138.549 76.0664 138.203 76.5586C137.857 77.0508 137.395 77.4434 136.814 77.7363C136.24 78.0293 135.631 78.1758 134.986 78.1758C133.691 78.1758 132.66 77.7451 131.893 76.8838C131.131 76.0166 130.75 74.833 130.75 73.333V73.0605C130.75 72.1348 130.92 71.3115 131.26 70.5908C131.6 69.8701 132.086 69.3105 132.719 68.9121C133.357 68.5137 134.11 68.3145 134.978 68.3145C136.044 68.3145 136.929 68.6338 137.632 69.2725C138.341 69.9111 138.719 70.7402 138.766 71.7598H137.228C137.181 71.1445 136.946 70.6406 136.524 70.248C136.108 69.8496 135.593 69.6504 134.978 69.6504C134.151 69.6504 133.51 69.9492 133.053 70.5469C132.602 71.1387 132.376 71.9971 132.376 73.1221V73.4297C132.376 74.5254 132.602 75.3691 133.053 75.9609C133.504 76.5527 134.148 76.8486 134.986 76.8486ZM142.8 66.1875V68.4902H144.575V69.7471H142.8V75.6445C142.8 76.0254 142.879 76.3125 143.037 76.5059C143.195 76.6934 143.465 76.7871 143.846 76.7871C144.033 76.7871 144.291 76.752 144.619 76.6816V78C144.191 78.1172 143.775 78.1758 143.371 78.1758C142.645 78.1758 142.097 77.9561 141.728 77.5166C141.358 77.0771 141.174 76.4531 141.174 75.6445V69.7471H139.442V68.4902H141.174V66.1875H142.8ZM148.249 78H146.623V68.4902H148.249V78ZM146.491 65.9678C146.491 65.7041 146.57 65.4814 146.729 65.2998C146.893 65.1182 147.133 65.0273 147.449 65.0273C147.766 65.0273 148.006 65.1182 148.17 65.2998C148.334 65.4814 148.416 65.7041 148.416 65.9678C148.416 66.2314 148.334 66.4512 148.17 66.627C148.006 66.8027 147.766 66.8906 147.449 66.8906C147.133 66.8906 146.893 66.8027 146.729 66.627C146.57 66.4512 146.491 66.2314 146.491 65.9678ZM150.429 73.1572C150.429 72.2256 150.61 71.3877 150.974 70.6436C151.343 69.8994 151.853 69.3252 152.503 68.9209C153.159 68.5166 153.906 68.3145 154.744 68.3145C156.039 68.3145 157.085 68.7627 157.882 69.6592C158.685 70.5557 159.086 71.748 159.086 73.2363V73.3506C159.086 74.2764 158.907 75.1084 158.55 75.8467C158.198 76.5791 157.691 77.1504 157.029 77.5605C156.373 77.9707 155.617 78.1758 154.762 78.1758C153.473 78.1758 152.427 77.7275 151.624 76.8311C150.827 75.9346 150.429 74.748 150.429 73.2715V73.1572ZM152.063 73.3506C152.063 74.4053 152.307 75.252 152.793 75.8906C153.285 76.5293 153.941 76.8486 154.762 76.8486C155.588 76.8486 156.244 76.5264 156.73 75.8818C157.217 75.2314 157.46 74.3232 157.46 73.1572C157.46 72.1143 157.211 71.2705 156.713 70.626C156.221 69.9756 155.564 69.6504 154.744 69.6504C153.941 69.6504 153.294 69.9697 152.802 70.6084C152.31 71.2471 152.063 72.1611 152.063 73.3506ZM162.663 68.4902L162.716 69.6855C163.442 68.7715 164.392 68.3145 165.563 68.3145C167.573 68.3145 168.587 69.4482 168.604 71.7158V78H166.979V71.707C166.973 71.0215 166.814 70.5146 166.504 70.1865C166.199 69.8584 165.722 69.6943 165.071 69.6943C164.544 69.6943 164.081 69.835 163.683 70.1162C163.284 70.3975 162.974 70.7666 162.751 71.2236V78H161.125V68.4902H162.663ZM176.594 75.4775C176.594 75.0381 176.427 74.6982 176.093 74.458C175.765 74.2119 175.188 74.001 174.361 73.8252C173.541 73.6494 172.888 73.4385 172.401 73.1924C171.921 72.9463 171.563 72.6533 171.329 72.3135C171.101 71.9736 170.986 71.5693 170.986 71.1006C170.986 70.3213 171.314 69.6621 171.971 69.123C172.633 68.584 173.477 68.3145 174.502 68.3145C175.58 68.3145 176.453 68.5928 177.121 69.1494C177.795 69.7061 178.132 70.418 178.132 71.2852H176.497C176.497 70.8398 176.307 70.4561 175.926 70.1338C175.551 69.8115 175.076 69.6504 174.502 69.6504C173.91 69.6504 173.447 69.7793 173.113 70.0371C172.779 70.2949 172.612 70.6318 172.612 71.0479C172.612 71.4404 172.768 71.7363 173.078 71.9355C173.389 72.1348 173.948 72.3252 174.757 72.5068C175.571 72.6885 176.23 72.9053 176.734 73.1572C177.238 73.4092 177.61 73.7139 177.851 74.0713C178.097 74.4229 178.22 74.8535 178.22 75.3633C178.22 76.2129 177.88 76.8955 177.2 77.4111C176.521 77.9209 175.639 78.1758 174.555 78.1758C173.793 78.1758 173.119 78.041 172.533 77.7715C171.947 77.502 171.487 77.127 171.153 76.6465C170.825 76.1602 170.661 75.6357 170.661 75.0732H172.287C172.316 75.6182 172.533 76.0518 172.938 76.374C173.348 76.6904 173.887 76.8486 174.555 76.8486C175.17 76.8486 175.662 76.7256 176.031 76.4795C176.406 76.2275 176.594 75.8936 176.594 75.4775Z" fill="#000B0D"/>
<path d="M150.646 28.3354C150.694 28.2645 150.72 28.1814 150.72 28.0964C150.72 28.0114 150.694 27.9282 150.647 27.8573C150.089 27.019 149.342 26.3191 148.463 25.8123C147.626 25.3307 146.674 25.0753 145.704 25.072H143.948C143.222 23.0509 141.875 21.3008 140.094 20.0628C138.312 18.8248 136.183 18.16 134 18.16C131.817 18.16 129.688 18.8248 127.906 20.0628C126.124 21.3008 124.778 23.0509 124.052 25.072H122.296C121.302 25.0979 120.33 25.3658 119.467 25.8518C118.605 26.3377 117.878 27.0265 117.354 27.8561C117.345 27.8715 117.338 27.8874 117.331 27.9037C117.323 27.9173 117.317 27.9314 117.311 27.9458C117.274 28.0424 117.274 28.149 117.311 28.2456C117.325 28.2753 117.339 28.305 117.353 28.3347C117.91 29.1728 118.658 29.8727 119.537 30.3794C119.942 30.6092 120.374 30.7887 120.823 30.9139C120.877 31.4264 121.115 31.9031 121.496 32.2575C121.877 32.6119 122.375 32.8205 122.899 32.8454C123.423 32.8704 123.939 32.71 124.353 32.3934C124.767 32.0768 125.052 31.625 125.156 31.12H131.844C131.946 31.6078 132.216 32.0462 132.608 32.3611C133.001 32.676 133.493 32.848 134 32.848C134.507 32.848 134.999 32.676 135.391 32.3611C135.784 32.0462 136.054 31.6078 136.156 31.12H142.404C142.507 31.6167 142.784 32.0621 143.188 32.378C143.591 32.6939 144.095 32.8601 144.611 32.8473C145.127 32.8345 145.622 32.6436 146.009 32.3081C146.396 31.9726 146.65 31.514 146.727 31.0129C147.528 30.8441 148.287 30.5205 148.96 30.0608C149.633 29.6011 150.206 29.0146 150.646 28.3354ZM134 19.024C135.968 19.0247 137.89 19.6148 139.508 20.7157C141.125 21.8165 142.363 23.3757 143.055 25.1851C140.51 25.7253 137.922 26.0371 135.32 26.1165L135.32 25.504C135.32 25.3365 135.287 25.1705 135.223 25.0154C135.393 24.8549 135.528 24.6624 135.62 24.4495C135.712 24.2365 135.76 24.0074 135.76 23.776L135.76 22.912C135.76 22.4537 135.574 22.0142 135.244 21.6901C134.914 21.3661 134.467 21.184 134 21.184C133.533 21.184 133.085 21.3661 132.755 21.6901C132.425 22.0142 132.24 22.4537 132.24 22.912V23.776C132.24 24.0074 132.288 24.2365 132.38 24.4495C132.472 24.6624 132.607 24.8549 132.777 25.0154C132.713 25.1705 132.68 25.3365 132.68 25.504V26.1165C132.24 26.1032 131.8 26.0829 131.36 26.0555V25.2509L131.891 24.7295C131.973 24.6483 132.018 24.5387 132.018 24.4246C132.017 24.3106 131.971 24.2013 131.889 24.1207C131.807 24.04 131.695 23.9945 131.579 23.9941C131.463 23.9937 131.352 24.0385 131.269 24.1186L130.609 24.7666C130.527 24.8477 130.48 24.9575 130.48 25.072V25.995C128.619 25.8435 126.77 25.573 124.945 25.1851C125.637 23.3757 126.874 21.8165 128.492 20.7156C130.11 19.6148 132.032 19.0247 134 19.024ZM134 26.138C133.853 26.138 133.707 26.1334 133.56 26.1319V25.504C133.562 25.4845 133.566 25.4652 133.571 25.4462C133.852 25.5232 134.148 25.5232 134.429 25.4462C134.434 25.4652 134.438 25.4845 134.44 25.504V26.1319C134.293 26.1334 134.147 26.138 134 26.138ZM134.88 22.912V23.776C134.88 24.0052 134.787 24.2249 134.622 24.387C134.457 24.549 134.233 24.64 134 24.64C133.767 24.64 133.543 24.549 133.378 24.387C133.213 24.2249 133.12 24.0052 133.12 23.776L133.12 22.912C133.12 22.6829 133.213 22.4631 133.378 22.3011C133.543 22.139 133.767 22.048 134 22.048C134.233 22.048 134.457 22.139 134.622 22.3011C134.787 22.4631 134.88 22.6829 134.88 22.912ZM122.296 25.936H124.313C127.204 26.5791 130.155 26.9322 133.119 26.9898L133.12 26.9901L133.121 26.9899C133.414 26.9956 133.707 27.002 134 27.002C134.293 27.002 134.586 26.9957 134.879 26.9899L134.88 26.9901L134.881 26.9898C137.845 26.9322 140.795 26.5791 143.687 25.936H145.704C146.519 25.9393 147.319 26.1547 148.022 26.5605C148.532 26.8548 148.99 27.2274 149.379 27.664H118.623C119.075 27.1361 119.636 26.7089 120.27 26.4109C120.903 26.1129 121.594 25.951 122.296 25.936ZM123 31.984C122.723 31.9831 122.453 31.8963 122.229 31.7359C122.004 31.5755 121.838 31.3497 121.752 31.0907C121.933 31.1096 122.114 31.1194 122.296 31.12H124.239C124.148 31.372 123.981 31.5903 123.759 31.745C123.537 31.8997 123.272 31.9832 123 31.984ZM134 31.984C133.728 31.9832 133.463 31.8997 133.241 31.745C133.019 31.5903 132.852 31.372 132.761 31.12H135.239C135.148 31.372 134.981 31.5903 134.759 31.745C134.537 31.8997 134.272 31.9832 134 31.984ZM144.56 31.984C144.288 31.9832 144.023 31.8997 143.801 31.745C143.579 31.5903 143.411 31.372 143.321 31.12H145.704C145.736 31.12 145.768 31.1145 145.801 31.1139C145.711 31.3673 145.544 31.5872 145.322 31.7431C145.099 31.899 144.833 31.9832 144.56 31.984ZM146.264 30.2207C146.078 30.2442 145.891 30.256 145.704 30.256H122.296C121.974 30.2557 121.653 30.2214 121.338 30.1538C120.86 30.0498 120.401 29.8736 119.978 29.6316L119.977 29.6311C119.468 29.3369 119.01 28.9645 118.621 28.528H149.378C148.584 29.4445 147.477 30.046 146.264 30.2207Z" fill="#000B0D"/>
<path d="M119.538 30.3801L119.537 30.3791L119.538 30.3801Z" fill="#000B0D"/>
<path d="M132.327 20.4834C132.878 20.3745 133.438 20.3198 134 20.32C135.813 20.3162 137.579 20.8923 139.029 21.9613C139.122 22.0302 139.239 22.0598 139.355 22.0438C139.471 22.0277 139.575 21.9672 139.645 21.8756C139.715 21.784 139.745 21.6689 139.729 21.5554C139.713 21.442 139.651 21.3396 139.558 21.2707H139.558C137.955 20.0892 136.004 19.4522 134 19.456C133.38 19.4558 132.761 19.5162 132.153 19.6365C132.096 19.6476 132.042 19.6696 131.994 19.7013C131.946 19.7329 131.905 19.7735 131.873 19.8208C131.841 19.8681 131.819 19.9211 131.808 19.9768C131.796 20.0325 131.797 20.0899 131.808 20.1455C131.819 20.2012 131.842 20.2541 131.874 20.3012C131.906 20.3483 131.948 20.3887 131.996 20.4201C132.044 20.4515 132.098 20.4732 132.155 20.4841C132.212 20.4949 132.27 20.4947 132.327 20.4834Z" fill="#000B0D"/>
<path d="M134 23.776C134.117 23.776 134.229 23.7305 134.311 23.6495C134.394 23.5685 134.44 23.4586 134.44 23.344V22.912C134.44 22.7974 134.394 22.6876 134.311 22.6065C134.229 22.5255 134.117 22.48 134 22.48C133.883 22.48 133.771 22.5255 133.689 22.6065C133.606 22.6876 133.56 22.7974 133.56 22.912V23.344C133.56 23.4586 133.606 23.5685 133.689 23.6495C133.771 23.7305 133.883 23.776 134 23.776Z" fill="#000B0D"/>
<path d="M127.081 31.5686C127.025 31.553 126.967 31.5484 126.91 31.5548C126.852 31.5613 126.797 31.5788 126.746 31.6064C126.696 31.6339 126.651 31.671 126.615 31.7154C126.579 31.7598 126.553 31.8108 126.537 31.8653L120.377 53.0333C120.36 53.092 120.356 53.1536 120.364 53.214C120.373 53.2744 120.395 53.3323 120.429 53.3838C120.462 53.4353 120.506 53.4793 120.558 53.5128C120.61 53.5464 120.669 53.5688 120.73 53.5785L121.587 53.7141C123.065 53.9483 124.548 54.1404 126.035 54.2903C126.093 54.2964 126.151 54.2912 126.206 54.2751C126.262 54.259 126.314 54.2323 126.359 54.1965C126.404 54.1607 126.441 54.1165 126.469 54.0664C126.496 54.0164 126.514 53.9615 126.52 53.9049C126.526 53.8483 126.52 53.7911 126.503 53.7366C126.487 53.6821 126.459 53.6314 126.423 53.5873C126.386 53.5433 126.341 53.5068 126.29 53.4799C126.239 53.4531 126.183 53.4364 126.125 53.4308L126.125 53.4308C124.655 53.2825 123.189 53.0926 121.727 52.8611L121.359 52.8029L127.383 32.1027C127.415 31.9925 127.401 31.8744 127.345 31.7742C127.288 31.6741 127.193 31.6001 127.081 31.5686Z" fill="#000B0D"/>
<path d="M131.345 54.6471C132.234 54.6769 133.124 54.6918 134.014 54.6918C138.459 54.6918 142.895 54.3191 147.275 53.5777C147.336 53.5674 147.394 53.5446 147.445 53.5109C147.496 53.4771 147.54 53.4331 147.573 53.3818C147.605 53.3304 147.627 53.2729 147.636 53.2128C147.644 53.1528 147.64 53.0916 147.623 53.0333L141.463 31.8653C141.431 31.7557 141.355 31.6632 141.253 31.6081C141.151 31.5529 141.032 31.5396 140.92 31.5709C140.808 31.6023 140.713 31.6758 140.657 31.7755C140.6 31.8751 140.586 31.9928 140.617 32.1027H140.617L146.641 52.803C142.468 53.4839 138.245 53.8266 134.014 53.8278C133.134 53.8278 132.255 53.8131 131.375 53.7836C131.317 53.7816 131.26 53.7909 131.206 53.8108C131.151 53.8307 131.102 53.8609 131.06 53.8996C131.017 53.9383 130.983 53.9848 130.959 54.0365C130.936 54.0881 130.922 54.1439 130.92 54.2006C130.918 54.2573 130.928 54.3138 130.948 54.3669C130.968 54.4201 130.999 54.4687 131.038 54.5102C131.078 54.5517 131.125 54.5851 131.178 54.6086C131.23 54.6321 131.287 54.6451 131.345 54.6471Z" fill="#000B0D"/>
<path d="M129.528 45.8627C129.435 46.1475 129.429 46.453 129.513 46.7407C129.596 47.0284 129.765 47.2853 129.997 47.479C130.229 47.6727 130.515 47.7944 130.817 47.8289C131.12 47.8633 131.426 47.8089 131.698 47.6724L134.047 46.4896C134.405 46.3091 134.678 45.9977 134.805 45.6223L137.37 44.3311C137.687 44.1696 137.963 43.9406 138.178 43.6609L139.732 44.4042C139.784 44.4291 139.84 44.4437 139.898 44.4471C139.956 44.4505 140.014 44.4428 140.068 44.4243C140.123 44.4058 140.173 44.377 140.216 44.3394C140.26 44.3017 140.295 44.2561 140.32 44.2051C140.346 44.1541 140.36 44.0987 140.364 44.0421C140.368 43.9855 140.36 43.9287 140.341 43.8751C140.322 43.8215 140.293 43.772 140.254 43.7295C140.216 43.687 140.17 43.6524 140.118 43.6275L138.581 42.8921C138.765 42.3077 138.707 41.6755 138.419 41.1329H138.419L138.419 41.1328L138.419 41.1327C138.16 40.6296 137.725 40.2344 137.195 40.0188C136.664 39.8032 136.073 39.7816 135.527 39.9578L134.658 38.6709C134.593 38.5755 134.493 38.509 134.378 38.4863C134.264 38.4636 134.145 38.4864 134.048 38.5497C133.951 38.6131 133.883 38.7117 133.86 38.824C133.837 38.9363 133.86 39.053 133.925 39.1485L134.719 40.3252L134.439 40.4665L132.541 40.0741C132.484 40.0623 132.426 40.0615 132.369 40.0719C132.312 40.0823 132.258 40.1036 132.209 40.1346C132.161 40.1656 132.119 40.2056 132.086 40.2525C132.054 40.2993 132.031 40.3521 132.019 40.4076C132.007 40.4632 132.006 40.5206 132.017 40.5764C132.027 40.6322 132.049 40.6854 132.081 40.733C132.113 40.7805 132.153 40.8215 132.201 40.8535C132.249 40.8855 132.303 40.9079 132.359 40.9195L133.196 41.0924L131.638 41.8767C131.571 41.9104 131.514 41.9558 131.452 41.9947L130.84 40.822C130.786 40.7205 130.694 40.6439 130.583 40.609C130.472 40.5742 130.352 40.5839 130.248 40.636C130.144 40.6882 130.066 40.7785 130.03 40.8873C129.994 40.996 130.004 41.1143 130.057 41.2162L130.785 42.6106C130.764 42.6391 130.744 42.6681 130.724 42.6974L128.979 42.3503C128.922 42.3387 128.864 42.3383 128.807 42.349C128.75 42.3597 128.696 42.3814 128.647 42.4127C128.599 42.444 128.557 42.4844 128.525 42.5316C128.493 42.5787 128.47 42.6317 128.459 42.6875C128.447 42.7433 128.447 42.8007 128.458 42.8565C128.469 42.9124 128.491 42.9655 128.524 43.0128C128.556 43.0602 128.597 43.1008 128.645 43.1324C128.693 43.1641 128.748 43.186 128.804 43.1971L130.379 43.5102C130.272 43.967 130.314 44.4453 130.5 44.8771L130.292 44.9815C129.929 45.1641 129.654 45.4811 129.528 45.8627ZM135.563 40.8715C135.743 40.7804 135.939 40.7252 136.141 40.7088C136.342 40.6925 136.545 40.7155 136.738 40.7764C136.931 40.8373 137.109 40.935 137.263 41.0638C137.417 41.1926 137.544 41.3501 137.636 41.5271L138.027 41.33L137.636 41.5273C137.748 41.7399 137.806 41.9755 137.806 42.2147C137.806 42.372 137.781 42.5282 137.731 42.6775L137.729 42.6826C137.668 42.8715 137.57 43.0465 137.439 43.1976C137.308 43.3486 137.148 43.4726 136.968 43.5622L134.791 44.6585C134.771 44.5888 134.745 44.5207 134.715 44.4547L134.714 44.4542H134.714C134.695 44.4177 134.672 44.3848 134.65 44.3505C134.633 44.3236 134.619 44.2948 134.6 44.2693C134.437 44.0433 134.213 43.8658 133.954 43.7563L133.95 43.7544C133.921 43.7421 133.89 43.7339 133.86 43.7234C133.663 43.6526 133.453 43.6228 133.243 43.6358C133.033 43.6488 132.828 43.7043 132.641 43.7988L131.294 44.477C131.236 44.3218 131.205 44.1584 131.201 43.9931C131.201 43.8359 131.226 43.6798 131.276 43.5305L131.278 43.5253C131.339 43.3363 131.438 43.1613 131.569 43.0102C131.699 42.8592 131.859 42.7352 132.039 42.6455L135.563 40.8715ZM130.365 46.1282C130.419 45.9644 130.538 45.8285 130.694 45.7503L132.736 44.722L133.043 44.5676C133.065 44.5581 133.088 44.5498 133.111 44.5428C133.254 44.4852 133.413 44.4807 133.559 44.5299C133.705 44.5791 133.827 44.6787 133.904 44.8102C133.912 44.8237 133.924 44.8341 133.931 44.8485C133.946 44.8801 133.959 44.9129 133.968 44.9466C133.991 45.0107 134.003 45.0779 134.004 45.1457L133.995 45.2525L133.992 45.2677L133.974 45.3438C133.919 45.5071 133.801 45.6427 133.645 45.7208L131.296 46.9036C131.18 46.962 131.049 46.9852 130.919 46.9705C130.789 46.9557 130.667 46.9036 130.567 46.8207C130.468 46.7377 130.395 46.6277 130.36 46.5045C130.324 46.3812 130.326 46.2503 130.365 46.1282V46.1282Z" fill="#000B0D"/>
</g>
<defs>
<filter id="filter0_d" x="0" y="0" width="202" height="110" filterUnits="userSpaceOnUse" color-interpolation-filters="sRGB">
<feFlood flood-opacity="0" result="BackgroundImageFix"/>
<feColorMatrix in="SourceAlpha" type="matrix" values="0 0 0 0 0 0 0 0 0 0 0 0 0 0 0 0 0 0 127 0"/>
<feOffset dy="4"/>
<feGaussianBlur stdDeviation="2"/>
<feColorMatrix type="matrix" values="0 0 0 0 0 0 0 0 0 0 0 0 0 0 0 0 0 0 0.25 0"/>
<feBlend mode="normal" in2="BackgroundImageFix" result="effect1_dropShadow"/>
<feBlend mode="normal" in="SourceGraphic" in2="effect1_dropShadow" result="shape"/>
</filter>
<filter id="filter1_d" x="15" y="22" width="55.665" height="68" filterUnits="userSpaceOnUse" color-interpolation-filters="sRGB">
<feFlood flood-opacity="0" result="BackgroundImageFix"/>
<feColorMatrix in="SourceAlpha" type="matrix" values="0 0 0 0 0 0 0 0 0 0 0 0 0 0 0 0 0 0 127 0"/>
<feOffset dy="4"/>
<feGaussianBlur stdDeviation="2"/>
<feColorMatrix type="matrix" values="0 0 0 0 0 0 0 0 0 0 0 0 0 0 0 0 0 0 0.25 0"/>
<feBlend mode="normal" in2="BackgroundImageFix" result="effect1_dropShadow"/>
<feBlend mode="normal" in="SourceGraphic" in2="effect1_dropShadow" result="shape"/>
</filter>
<filter id="filter2_d" x="33.8569" y="47.1821" width="34.5723" height="18.9644" filterUnits="userSpaceOnUse" color-interpolation-filters="sRGB">
<feFlood flood-opacity="0" result="BackgroundImageFix"/>
<feColorMatrix in="SourceAlpha" type="matrix" values="0 0 0 0 0 0 0 0 0 0 0 0 0 0 0 0 0 0 127 0"/>
<feOffset dy="4"/>
<feGaussianBlur stdDeviation="2"/>
<feColorMatrix type="matrix" values="0 0 0 0 0 0 0 0 0 0 0 0 0 0 0 0 0 0 0.25 0"/>
<feBlend mode="normal" in2="BackgroundImageFix" result="effect1_dropShadow"/>
<feBlend mode="normal" in="SourceGraphic" in2="effect1_dropShadow" result="shape"/>
</filter>
<filter id="filter3_d" x="15" y="22" width="68" height="68" filterUnits="userSpaceOnUse" color-interpolation-filters="sRGB">
<feFlood flood-opacity="0" result="BackgroundImageFix"/>
<feColorMatrix in="SourceAlpha" type="matrix" values="0 0 0 0 0 0 0 0 0 0 0 0 0 0 0 0 0 0 127 0"/>
<feOffset dy="4"/>
<feGaussianBlur stdDeviation="2"/>
<feColorMatrix type="matrix" values="0 0 0 0 0 0 0 0 0 0 0 0 0 0 0 0 0 0 0.25 0"/>
<feBlend mode="normal" in2="BackgroundImageFix" result="effect1_dropShadow"/>
<feBlend mode="normal" in="SourceGraphic" in2="effect1_dropShadow" result="shape"/>
</filter>
</defs>
</svg>
