<svg width="202" height="110" viewBox="0 0 202 110" fill="none" xmlns="http://www.w3.org/2000/svg">
<g filter="url(#filter0_d)">
<rect x="4" width="194" height="102" rx="12" fill="white"/>
<g filter="url(#filter1_d)">
<path d="M49 82C42.3422 82 35.8735 79.7853 30.6128 75.7047C25.3521 71.624 21.5982 65.9094 19.9425 59.4607C18.2868 53.012 18.8232 46.1958 21.4674 40.0856C24.1115 33.9753 28.7131 28.9182 34.5474 25.7108L49 52L49 82Z" fill="#7FC2B6"/>
</g>
<g filter="url(#filter2_d)">
<path d="M43.8188 54.1987H45.1445V55.627H43.8188V58H42.0391V55.627H37.4321L37.3809 54.543L41.9805 47.3359H43.8188V54.1987ZM39.2485 54.1987H42.0391V49.7456L41.9072 49.98L39.2485 54.1987ZM53.4941 58H46.3237V56.7769L49.876 52.9023C50.3887 52.3311 50.7524 51.855 50.9673 51.4741C51.187 51.0884 51.2969 50.7026 51.2969 50.3169C51.2969 49.8091 51.1528 49.3989 50.8647 49.0864C50.5815 48.7739 50.1982 48.6177 49.7148 48.6177C49.1387 48.6177 48.6919 48.7935 48.3745 49.145C48.0571 49.4966 47.8984 49.9775 47.8984 50.5879H46.1187C46.1187 49.9385 46.2651 49.355 46.5581 48.8374C46.856 48.3149 47.2783 47.9097 47.8252 47.6216C48.377 47.3335 49.0117 47.1895 49.7295 47.1895C50.7646 47.1895 51.5801 47.4507 52.1758 47.9731C52.7764 48.4907 53.0767 49.2085 53.0767 50.1265C53.0767 50.6587 52.9253 51.2178 52.6226 51.8037C52.3247 52.3848 51.834 53.0464 51.1504 53.7886L48.543 56.5791H53.4941V58ZM54.7759 49.3867C54.7759 48.7422 54.9834 48.2148 55.3984 47.8047C55.8135 47.3896 56.3579 47.1821 57.0317 47.1821C57.7153 47.1821 58.2622 47.3896 58.6724 47.8047C59.0874 48.2148 59.2949 48.7544 59.2949 49.4233V49.9507C59.2949 50.5903 59.0874 51.1152 58.6724 51.5254C58.2622 51.9355 57.7202 52.1406 57.0464 52.1406C56.3872 52.1406 55.8428 51.9404 55.4131 51.54C54.9883 51.1348 54.7759 50.5903 54.7759 49.9067V49.3867ZM56.021 49.9507C56.021 50.2876 56.1138 50.561 56.2993 50.771C56.4897 50.9761 56.7388 51.0786 57.0464 51.0786C57.3491 51.0786 57.5933 50.9761 57.7788 50.771C57.9644 50.561 58.0571 50.2778 58.0571 49.9214V49.3867C58.0571 49.0498 57.9619 48.7764 57.7715 48.5664C57.5859 48.3564 57.3394 48.2515 57.0317 48.2515C56.7241 48.2515 56.4775 48.3589 56.292 48.5737C56.1113 48.7837 56.021 49.062 56.021 49.4087V49.9507ZM59.9028 55.3853C59.9028 54.731 60.1152 54.2012 60.54 53.7959C60.9648 53.3906 61.5068 53.188 62.166 53.188C62.8301 53.188 63.3721 53.3906 63.792 53.7959C64.2168 54.2012 64.4292 54.748 64.4292 55.4365V55.9565C64.4292 56.5913 64.2241 57.1162 63.814 57.5312C63.4087 57.9414 62.8643 58.1465 62.1807 58.1465C61.4971 58.1465 60.9453 57.9438 60.5254 57.5386C60.1104 57.1284 59.9028 56.5889 59.9028 55.9199V55.3853ZM61.1479 55.9565C61.1479 56.2886 61.2432 56.562 61.4336 56.7769C61.6289 56.9868 61.8779 57.0918 62.1807 57.0918C62.4932 57.0918 62.7373 56.9917 62.9131 56.7915C63.0938 56.5864 63.1841 56.3008 63.1841 55.9346V55.3853C63.1841 55.0435 63.0889 54.77 62.8984 54.5649C62.708 54.3599 62.4639 54.2573 62.166 54.2573C61.8633 54.2573 61.6167 54.3599 61.4263 54.5649C61.2407 54.77 61.1479 55.0532 61.1479 55.4146V55.9565ZM57.4126 57.2017L56.4971 56.6743L61.7046 48.3394L62.6201 48.8667L57.4126 57.2017Z" fill="#000B0D"/>
</g>
<g filter="url(#filter3_d)">
<circle cx="49" cy="52" r="29.5" stroke="#000B0D"/>
</g>
<path d="M109.552 74.6602H104.19L102.986 78H101.246L106.133 65.2031H107.609L112.505 78H110.773L109.552 74.6602ZM104.7 73.2715H109.051L106.871 67.2861L104.7 73.2715ZM118.569 69.9492C118.323 69.9082 118.057 69.8877 117.77 69.8877C116.703 69.8877 115.979 70.3418 115.599 71.25V78H113.973V68.4902H115.555L115.581 69.5889C116.114 68.7393 116.87 68.3145 117.849 68.3145C118.165 68.3145 118.405 68.3555 118.569 68.4375V69.9492ZM123.843 78.1758C122.554 78.1758 121.505 77.7539 120.696 76.9102C119.888 76.0605 119.483 74.9268 119.483 73.5088V73.21C119.483 72.2666 119.662 71.4258 120.02 70.6875C120.383 69.9434 120.887 69.3633 121.531 68.9473C122.182 68.5254 122.885 68.3145 123.641 68.3145C124.877 68.3145 125.838 68.7217 126.523 69.5361C127.209 70.3506 127.552 71.5166 127.552 73.0342V73.7109H121.109C121.133 74.6484 121.405 75.4072 121.927 75.9873C122.454 76.5615 123.122 76.8486 123.931 76.8486C124.505 76.8486 124.991 76.7314 125.39 76.4971C125.788 76.2627 126.137 75.9521 126.436 75.5654L127.429 76.3389C126.632 77.5635 125.437 78.1758 123.843 78.1758ZM123.641 69.6504C122.984 69.6504 122.434 69.8906 121.988 70.3711C121.543 70.8457 121.268 71.5137 121.162 72.375H125.926V72.252C125.879 71.4258 125.656 70.7871 125.258 70.3359C124.859 69.8789 124.32 69.6504 123.641 69.6504ZM135.312 78C135.219 77.8125 135.143 77.4785 135.084 76.998C134.328 77.7832 133.426 78.1758 132.377 78.1758C131.439 78.1758 130.669 77.9121 130.065 77.3848C129.468 76.8516 129.169 76.1777 129.169 75.3633C129.169 74.373 129.544 73.6055 130.294 73.0605C131.05 72.5098 132.11 72.2344 133.476 72.2344H135.058V71.4873C135.058 70.9189 134.888 70.4678 134.548 70.1338C134.208 69.7939 133.707 69.624 133.045 69.624C132.465 69.624 131.979 69.7705 131.586 70.0635C131.193 70.3564 130.997 70.7109 130.997 71.127H129.362C129.362 70.6523 129.529 70.1953 129.863 69.7559C130.203 69.3105 130.66 68.959 131.234 68.7012C131.814 68.4434 132.45 68.3145 133.142 68.3145C134.237 68.3145 135.096 68.5898 135.717 69.1406C136.338 69.6855 136.66 70.4385 136.684 71.3994V75.7764C136.684 76.6494 136.795 77.3438 137.018 77.8594V78H135.312ZM132.614 76.7607C133.124 76.7607 133.607 76.6289 134.064 76.3652C134.521 76.1016 134.853 75.7588 135.058 75.3369V73.3857H133.783C131.791 73.3857 130.795 73.9688 130.795 75.1348C130.795 75.6445 130.965 76.043 131.305 76.3301C131.645 76.6172 132.081 76.7607 132.614 76.7607ZM144.277 71.584L144.928 65.2031H151.484V66.7061H146.308L145.921 70.1953C146.548 69.8262 147.26 69.6416 148.057 69.6416C149.223 69.6416 150.148 70.0283 150.834 70.8018C151.52 71.5693 151.862 72.6094 151.862 73.9219C151.862 75.2402 151.505 76.2803 150.79 77.042C150.081 77.7979 149.088 78.1758 147.811 78.1758C146.68 78.1758 145.757 77.8623 145.042 77.2354C144.327 76.6084 143.92 75.7412 143.82 74.6338H145.358C145.458 75.3662 145.719 75.9199 146.141 76.2949C146.562 76.6641 147.119 76.8486 147.811 76.8486C148.566 76.8486 149.158 76.5908 149.586 76.0752C150.02 75.5596 150.236 74.8477 150.236 73.9395C150.236 73.084 150.002 72.3984 149.533 71.8828C149.07 71.3613 148.452 71.1006 147.679 71.1006C146.97 71.1006 146.413 71.2559 146.009 71.5664L145.578 71.918L144.277 71.584ZM158.981 78H157.347V67.1631L154.068 68.3672V66.8906L158.727 65.1416H158.981V78Z" fill="#000B0D"/>
<path d="M117.625 54.25C118.858 54.27 120.055 54.6747 121.047 55.4075C122.236 56.2628 123.66 56.7315 125.125 56.75C126.516 56.7669 127.867 56.2806 128.928 55.3806C129.785 54.6508 130.873 54.2499 131.998 54.2499C133.123 54.2499 134.212 54.6508 135.068 55.3806C136.131 56.281 137.482 56.7673 138.875 56.75C140.34 56.7318 141.763 56.2631 142.953 55.4075C143.945 54.6752 145.142 54.2706 146.375 54.25C146.502 54.25 146.626 54.2115 146.73 54.1395C146.834 54.0675 146.914 53.9655 146.959 53.8469C147.004 53.7284 147.012 53.599 146.982 53.4758C146.952 53.3527 146.885 53.2417 146.79 53.1575L142.844 49.6494C142.382 49.2389 142.012 48.7353 141.759 48.1717C141.506 47.6081 141.375 46.9972 141.375 46.3794V21.75C141.375 21.087 141.112 20.4511 140.643 19.9822C140.174 19.5134 139.538 19.25 138.875 19.25C138.212 19.25 137.576 19.5134 137.107 19.9822C136.638 20.4511 136.375 21.087 136.375 21.75V24.25H127.625V21.75C127.625 21.087 127.362 20.4511 126.893 19.9822C126.424 19.5134 125.788 19.25 125.125 19.25C124.462 19.25 123.826 19.5134 123.357 19.9822C122.888 20.4511 122.625 21.087 122.625 21.75V46.3794C122.625 46.9972 122.494 47.6081 122.241 48.1717C121.988 48.7353 121.618 49.2389 121.156 49.6494L117.21 53.1575C117.115 53.2417 117.048 53.3527 117.018 53.4758C116.988 53.599 116.996 53.7284 117.041 53.8469C117.086 53.9655 117.166 54.0675 117.27 54.1395C117.374 54.2115 117.498 54.25 117.625 54.25ZM121.987 50.5838C122.58 50.0558 123.055 49.4082 123.381 48.6836C123.706 47.959 123.875 47.1737 123.875 46.3794V21.75C123.875 21.4185 124.007 21.1005 124.241 20.8661C124.476 20.6317 124.793 20.5 125.125 20.5C125.457 20.5 125.774 20.6317 126.009 20.8661C126.243 21.1005 126.375 21.4185 126.375 21.75V24.875C126.375 25.0408 126.441 25.1997 126.558 25.3169C126.675 25.4342 126.834 25.5 127 25.5H137C137.166 25.5 137.325 25.4342 137.442 25.3169C137.559 25.1997 137.625 25.0408 137.625 24.875V21.75C137.625 21.4185 137.757 21.1005 137.991 20.8661C138.226 20.6317 138.543 20.5 138.875 20.5C139.207 20.5 139.524 20.6317 139.759 20.8661C139.993 21.1005 140.125 21.4185 140.125 21.75V46.3794C140.125 47.1737 140.294 47.959 140.619 48.6836C140.945 49.4082 141.42 50.0558 142.013 50.5838L144.909 53.1575C143.976 53.3989 143.092 53.8007 142.296 54.345C141.304 55.0766 140.108 55.4804 138.875 55.5C137.747 55.5174 136.652 55.1144 135.804 54.3694C134.734 53.4842 133.388 53 131.999 53C130.61 53 129.264 53.4842 128.194 54.3694C127.347 55.1147 126.253 55.5178 125.125 55.5C123.891 55.48 122.695 55.0753 121.703 54.3425C120.908 53.7983 120.024 53.3964 119.092 53.155L121.987 50.5838Z" fill="#000B0D"/>
<path d="M132 39.25C133.113 39.25 134.2 38.9201 135.125 38.302C136.05 37.6839 136.771 36.8054 137.197 35.7776C137.623 34.7498 137.734 33.6188 137.517 32.5276C137.3 31.4365 136.764 30.4342 135.977 29.6475C135.191 28.8609 134.189 28.3251 133.097 28.1081C132.006 27.891 130.875 28.0024 129.847 28.4282C128.82 28.8539 127.941 29.5749 127.323 30.4999C126.705 31.4249 126.375 32.5125 126.375 33.625C126.377 35.1163 126.97 36.5461 128.024 37.6006C129.079 38.6552 130.509 39.2483 132 39.25ZM132 29.25C132.865 29.25 133.711 29.5066 134.431 29.9873C135.15 30.4681 135.711 31.1513 136.042 31.9508C136.373 32.7502 136.46 33.6299 136.291 34.4785C136.122 35.3272 135.705 36.1067 135.094 36.7186C134.482 37.3304 133.702 37.7471 132.854 37.9159C132.005 38.0847 131.125 37.9981 130.326 37.667C129.526 37.3358 128.843 36.7751 128.362 36.0556C127.882 35.3362 127.625 34.4903 127.625 33.625C127.626 32.4651 128.088 31.3531 128.908 30.5329C129.728 29.7127 130.84 29.2513 132 29.25Z" fill="#000B0D"/>
<path d="M128.591 39.9763L127.909 41.0238C129.126 41.8154 130.548 42.2368 132 42.2368C133.452 42.2368 134.874 41.8154 136.091 41.0238L135.409 39.9763C134.39 40.6238 133.207 40.9677 132 40.9677C130.793 40.9677 129.61 40.6238 128.591 39.9763Z" fill="#000B0D"/>
<path d="M132 35.5C132.371 35.5 132.733 35.39 133.042 35.184C133.35 34.978 133.59 34.6851 133.732 34.3425C133.874 33.9999 133.911 33.6229 133.839 33.2592C133.767 32.8955 133.588 32.5614 133.326 32.2992C133.064 32.037 132.73 31.8584 132.366 31.786C132.002 31.7137 131.625 31.7508 131.282 31.8927C130.94 32.0346 130.647 32.275 130.441 32.5833C130.235 32.8916 130.125 33.2542 130.125 33.625C130.125 34.1223 130.323 34.5992 130.674 34.9508C131.026 35.3025 131.503 35.5 132 35.5ZM132 33C132.124 33 132.244 33.0367 132.347 33.1053C132.45 33.174 132.53 33.2716 132.577 33.3858C132.625 33.5 132.637 33.6257 132.613 33.7469C132.589 33.8682 132.529 33.9795 132.442 34.0669C132.355 34.1544 132.243 34.2139 132.122 34.238C132.001 34.2621 131.875 34.2497 131.761 34.2024C131.647 34.1551 131.549 34.075 131.48 33.9722C131.412 33.8695 131.375 33.7486 131.375 33.625C131.375 33.4592 131.441 33.3003 131.558 33.1831C131.675 33.0658 131.834 33 132 33Z" fill="#000B0D"/>
<path d="M138.25 43H137V47.545C136.998 48.3661 137.158 49.1795 137.473 49.9381C137.787 50.6967 138.248 51.3854 138.831 51.9644L139.683 52.8169L140.567 51.9331L139.714 51.0806C139.249 50.6174 138.879 50.0664 138.628 49.4595C138.377 48.8526 138.248 48.2019 138.25 47.545V43Z" fill="#000B0D"/>
<path d="M138.25 40.5H137V41.75H138.25V40.5Z" fill="#000B0D"/>
</g>
<defs>
<filter id="filter0_d" x="0" y="0" width="202" height="110" filterUnits="userSpaceOnUse" color-interpolation-filters="sRGB">
<feFlood flood-opacity="0" result="BackgroundImageFix"/>
<feColorMatrix in="SourceAlpha" type="matrix" values="0 0 0 0 0 0 0 0 0 0 0 0 0 0 0 0 0 0 127 0"/>
<feOffset dy="4"/>
<feGaussianBlur stdDeviation="2"/>
<feColorMatrix type="matrix" values="0 0 0 0 0 0 0 0 0 0 0 0 0 0 0 0 0 0 0.25 0"/>
<feBlend mode="normal" in2="BackgroundImageFix" result="effect1_dropShadow"/>
<feBlend mode="normal" in="SourceGraphic" in2="effect1_dropShadow" result="shape"/>
</filter>
<filter id="filter1_d" x="15" y="25.7108" width="38" height="64.2892" filterUnits="userSpaceOnUse" color-interpolation-filters="sRGB">
<feFlood flood-opacity="0" result="BackgroundImageFix"/>
<feColorMatrix in="SourceAlpha" type="matrix" values="0 0 0 0 0 0 0 0 0 0 0 0 0 0 0 0 0 0 127 0"/>
<feOffset dy="4"/>
<feGaussianBlur stdDeviation="2"/>
<feColorMatrix type="matrix" values="0 0 0 0 0 0 0 0 0 0 0 0 0 0 0 0 0 0 0.25 0"/>
<feBlend mode="normal" in2="BackgroundImageFix" result="effect1_dropShadow"/>
<feBlend mode="normal" in="SourceGraphic" in2="effect1_dropShadow" result="shape"/>
</filter>
<filter id="filter2_d" x="33.3809" y="47.1821" width="35.0483" height="18.9644" filterUnits="userSpaceOnUse" color-interpolation-filters="sRGB">
<feFlood flood-opacity="0" result="BackgroundImageFix"/>
<feColorMatrix in="SourceAlpha" type="matrix" values="0 0 0 0 0 0 0 0 0 0 0 0 0 0 0 0 0 0 127 0"/>
<feOffset dy="4"/>
<feGaussianBlur stdDeviation="2"/>
<feColorMatrix type="matrix" values="0 0 0 0 0 0 0 0 0 0 0 0 0 0 0 0 0 0 0.25 0"/>
<feBlend mode="normal" in2="BackgroundImageFix" result="effect1_dropShadow"/>
<feBlend mode="normal" in="SourceGraphic" in2="effect1_dropShadow" result="shape"/>
</filter>
<filter id="filter3_d" x="15" y="22" width="68" height="68" filterUnits="userSpaceOnUse" color-interpolation-filters="sRGB">
<feFlood flood-opacity="0" result="BackgroundImageFix"/>
<feColorMatrix in="SourceAlpha" type="matrix" values="0 0 0 0 0 0 0 0 0 0 0 0 0 0 0 0 0 0 127 0"/>
<feOffset dy="4"/>
<feGaussianBlur stdDeviation="2"/>
<feColorMatrix type="matrix" values="0 0 0 0 0 0 0 0 0 0 0 0 0 0 0 0 0 0 0.25 0"/>
<feBlend mode="normal" in2="BackgroundImageFix" result="effect1_dropShadow"/>
<feBlend mode="normal" in="SourceGraphic" in2="effect1_dropShadow" result="shape"/>
</filter>
</defs>
</svg>
