<svg width="194" height="102" viewBox="0 0 194 102" fill="none" xmlns="http://www.w3.org/2000/svg">
<rect width="194" height="102" rx="12" fill="white"/>
<g filter="url(#filter0_d)">
<path d="M45 82C38.0285 82 31.2746 79.572 25.8988 75.1332C20.5231 70.6944 16.861 64.5219 15.5419 57.6764L45 52L45 82Z" fill="#7FC2B6"/>
</g>
<g filter="url(#filter1_d)">
<path d="M40.9688 58H33.7983V56.7769L37.3506 52.9023C37.8633 52.3311 38.2271 51.855 38.4419 51.4741C38.6616 51.0884 38.7715 50.7026 38.7715 50.3169C38.7715 49.8091 38.6274 49.3989 38.3394 49.0864C38.0562 48.7739 37.6729 48.6177 37.1895 48.6177C36.6133 48.6177 36.1665 48.7935 35.8491 49.145C35.5317 49.4966 35.373 49.9775 35.373 50.5879H33.5933C33.5933 49.9385 33.7397 49.355 34.0327 48.8374C34.3306 48.3149 34.7529 47.9097 35.2998 47.6216C35.8516 47.3335 36.4863 47.1895 37.2041 47.1895C38.2393 47.1895 39.0547 47.4507 39.6504 47.9731C40.251 48.4907 40.5513 49.2085 40.5513 50.1265C40.5513 50.6587 40.3999 51.2178 40.0972 51.8037C39.7993 52.3848 39.3086 53.0464 38.625 53.7886L36.0176 56.5791H40.9688V58ZM49.4941 58H42.3237V56.7769L45.876 52.9023C46.3887 52.3311 46.7524 51.855 46.9673 51.4741C47.187 51.0884 47.2969 50.7026 47.2969 50.3169C47.2969 49.8091 47.1528 49.3989 46.8647 49.0864C46.5815 48.7739 46.1982 48.6177 45.7148 48.6177C45.1387 48.6177 44.6919 48.7935 44.3745 49.145C44.0571 49.4966 43.8984 49.9775 43.8984 50.5879H42.1187C42.1187 49.9385 42.2651 49.355 42.5581 48.8374C42.856 48.3149 43.2783 47.9097 43.8252 47.6216C44.377 47.3335 45.0117 47.1895 45.7295 47.1895C46.7646 47.1895 47.5801 47.4507 48.1758 47.9731C48.7764 48.4907 49.0767 49.2085 49.0767 50.1265C49.0767 50.6587 48.9253 51.2178 48.6226 51.8037C48.3247 52.3848 47.834 53.0464 47.1504 53.7886L44.543 56.5791H49.4941V58ZM50.7759 49.3867C50.7759 48.7422 50.9834 48.2148 51.3984 47.8047C51.8135 47.3896 52.3579 47.1821 53.0317 47.1821C53.7153 47.1821 54.2622 47.3896 54.6724 47.8047C55.0874 48.2148 55.2949 48.7544 55.2949 49.4233V49.9507C55.2949 50.5903 55.0874 51.1152 54.6724 51.5254C54.2622 51.9355 53.7202 52.1406 53.0464 52.1406C52.3872 52.1406 51.8428 51.9404 51.4131 51.54C50.9883 51.1348 50.7759 50.5903 50.7759 49.9067V49.3867ZM52.021 49.9507C52.021 50.2876 52.1138 50.561 52.2993 50.771C52.4897 50.9761 52.7388 51.0786 53.0464 51.0786C53.3491 51.0786 53.5933 50.9761 53.7788 50.771C53.9644 50.561 54.0571 50.2778 54.0571 49.9214V49.3867C54.0571 49.0498 53.9619 48.7764 53.7715 48.5664C53.5859 48.3564 53.3394 48.2515 53.0317 48.2515C52.7241 48.2515 52.4775 48.3589 52.292 48.5737C52.1113 48.7837 52.021 49.062 52.021 49.4087V49.9507ZM55.9028 55.3853C55.9028 54.731 56.1152 54.2012 56.54 53.7959C56.9648 53.3906 57.5068 53.188 58.166 53.188C58.8301 53.188 59.3721 53.3906 59.792 53.7959C60.2168 54.2012 60.4292 54.748 60.4292 55.4365V55.9565C60.4292 56.5913 60.2241 57.1162 59.814 57.5312C59.4087 57.9414 58.8643 58.1465 58.1807 58.1465C57.4971 58.1465 56.9453 57.9438 56.5254 57.5386C56.1104 57.1284 55.9028 56.5889 55.9028 55.9199V55.3853ZM57.1479 55.9565C57.1479 56.2886 57.2432 56.562 57.4336 56.7769C57.6289 56.9868 57.8779 57.0918 58.1807 57.0918C58.4932 57.0918 58.7373 56.9917 58.9131 56.7915C59.0938 56.5864 59.1841 56.3008 59.1841 55.9346V55.3853C59.1841 55.0435 59.0889 54.77 58.8984 54.5649C58.708 54.3599 58.4639 54.2573 58.166 54.2573C57.8633 54.2573 57.6167 54.3599 57.4263 54.5649C57.2407 54.77 57.1479 55.0532 57.1479 55.4146V55.9565ZM53.4126 57.2017L52.4971 56.6743L57.7046 48.3394L58.6201 48.8667L53.4126 57.2017Z" fill="#000B0D"/>
</g>
<g filter="url(#filter2_d)">
<circle cx="45" cy="52" r="29.5" stroke="#000B0D"/>
</g>
<path d="M82.1729 72.9902V78H80.4854V65.2031H85.2051C86.6055 65.2031 87.7012 65.5605 88.4922 66.2754C89.2891 66.9902 89.6875 67.9365 89.6875 69.1143C89.6875 70.3564 89.2979 71.3145 88.5186 71.9883C87.7451 72.6562 86.6348 72.9902 85.1875 72.9902H82.1729ZM82.1729 71.6104H85.2051C86.1074 71.6104 86.7988 71.3994 87.2793 70.9775C87.7598 70.5498 88 69.9346 88 69.1318C88 68.3701 87.7598 67.7607 87.2793 67.3037C86.7988 66.8467 86.1396 66.6094 85.3018 66.5918H82.1729V71.6104ZM91.0322 73.1572C91.0322 72.2256 91.2139 71.3877 91.5771 70.6436C91.9463 69.8994 92.4561 69.3252 93.1064 68.9209C93.7627 68.5166 94.5098 68.3145 95.3477 68.3145C96.6426 68.3145 97.6885 68.7627 98.4854 69.6592C99.2881 70.5557 99.6895 71.748 99.6895 73.2363V73.3506C99.6895 74.2764 99.5107 75.1084 99.1533 75.8467C98.8018 76.5791 98.2949 77.1504 97.6328 77.5605C96.9766 77.9707 96.2207 78.1758 95.3652 78.1758C94.0762 78.1758 93.0303 77.7275 92.2275 76.8311C91.4307 75.9346 91.0322 74.748 91.0322 73.2715V73.1572ZM92.667 73.3506C92.667 74.4053 92.9102 75.252 93.3965 75.8906C93.8887 76.5293 94.5449 76.8486 95.3652 76.8486C96.1914 76.8486 96.8477 76.5264 97.334 75.8818C97.8203 75.2314 98.0635 74.3232 98.0635 73.1572C98.0635 72.1143 97.8145 71.2705 97.3164 70.626C96.8242 69.9756 96.168 69.6504 95.3477 69.6504C94.5449 69.6504 93.8975 69.9697 93.4053 70.6084C92.9131 71.2471 92.667 72.1611 92.667 73.3506ZM109.762 73.3506C109.762 74.7979 109.431 75.9639 108.769 76.8486C108.106 77.7334 107.21 78.1758 106.079 78.1758C104.925 78.1758 104.017 77.8096 103.354 77.0771V81.6562H101.729V68.4902H103.214L103.293 69.5449C103.955 68.7246 104.875 68.3145 106.053 68.3145C107.195 68.3145 108.098 68.7451 108.76 69.6064C109.428 70.4678 109.762 71.666 109.762 73.2012V73.3506ZM108.136 73.166C108.136 72.0938 107.907 71.2471 107.45 70.626C106.993 70.0049 106.366 69.6943 105.569 69.6943C104.585 69.6943 103.847 70.1309 103.354 71.0039V75.5479C103.841 76.415 104.585 76.8486 105.587 76.8486C106.366 76.8486 106.984 76.541 107.441 75.9258C107.904 75.3047 108.136 74.3848 108.136 73.166ZM125.969 73.9395C125.811 75.293 125.31 76.3389 124.466 77.0771C123.628 77.8096 122.512 78.1758 121.117 78.1758C119.605 78.1758 118.393 77.6338 117.479 76.5498C116.57 75.4658 116.116 74.0156 116.116 72.1992V70.9688C116.116 69.7793 116.327 68.7334 116.749 67.8311C117.177 66.9287 117.78 66.2373 118.56 65.7568C119.339 65.2705 120.241 65.0273 121.267 65.0273C122.626 65.0273 123.716 65.4082 124.536 66.1699C125.356 66.9258 125.834 67.9746 125.969 69.3164H124.272C124.126 68.2969 123.807 67.5586 123.314 67.1016C122.828 66.6445 122.146 66.416 121.267 66.416C120.188 66.416 119.342 66.8145 118.727 67.6113C118.117 68.4082 117.812 69.542 117.812 71.0127V72.252C117.812 73.6406 118.103 74.7451 118.683 75.5654C119.263 76.3857 120.074 76.7959 121.117 76.7959C122.055 76.7959 122.772 76.585 123.271 76.1631C123.774 75.7354 124.108 74.9941 124.272 73.9395H125.969ZM133.896 77.0596C133.264 77.8037 132.335 78.1758 131.11 78.1758C130.097 78.1758 129.323 77.8828 128.79 77.2969C128.263 76.7051 127.996 75.832 127.99 74.6777V68.4902H129.616V74.6338C129.616 76.0752 130.202 76.7959 131.374 76.7959C132.616 76.7959 133.442 76.333 133.853 75.4072V68.4902H135.479V78H133.932L133.896 77.0596ZM139.724 78H138.098V64.5H139.724V78ZM144.54 66.1875V68.4902H146.315V69.7471H144.54V75.6445C144.54 76.0254 144.619 76.3125 144.777 76.5059C144.936 76.6934 145.205 76.7871 145.586 76.7871C145.773 76.7871 146.031 76.752 146.359 76.6816V78C145.932 78.1172 145.516 78.1758 145.111 78.1758C144.385 78.1758 143.837 77.9561 143.468 77.5166C143.099 77.0771 142.914 76.4531 142.914 75.6445V69.7471H141.183V68.4902H142.914V66.1875H144.54ZM154.094 77.0596C153.461 77.8037 152.532 78.1758 151.308 78.1758C150.294 78.1758 149.521 77.8828 148.987 77.2969C148.46 76.7051 148.193 75.832 148.188 74.6777V68.4902H149.813V74.6338C149.813 76.0752 150.399 76.7959 151.571 76.7959C152.813 76.7959 153.64 76.333 154.05 75.4072V68.4902H155.676V78H154.129L154.094 77.0596ZM162.751 69.9492C162.505 69.9082 162.238 69.8877 161.951 69.8877C160.885 69.8877 160.161 70.3418 159.78 71.25V78H158.154V68.4902H159.736L159.763 69.5889C160.296 68.7393 161.052 68.3145 162.03 68.3145C162.347 68.3145 162.587 68.3555 162.751 68.4375V69.9492ZM168.024 78.1758C166.735 78.1758 165.687 77.7539 164.878 76.9102C164.069 76.0605 163.665 74.9268 163.665 73.5088V73.21C163.665 72.2666 163.844 71.4258 164.201 70.6875C164.564 69.9434 165.068 69.3633 165.713 68.9473C166.363 68.5254 167.066 68.3145 167.822 68.3145C169.059 68.3145 170.02 68.7217 170.705 69.5361C171.391 70.3506 171.733 71.5166 171.733 73.0342V73.7109H165.291C165.314 74.6484 165.587 75.4072 166.108 75.9873C166.636 76.5615 167.304 76.8486 168.112 76.8486C168.687 76.8486 169.173 76.7314 169.571 76.4971C169.97 76.2627 170.318 75.9521 170.617 75.5654L171.61 76.3389C170.813 77.5635 169.618 78.1758 168.024 78.1758ZM167.822 69.6504C167.166 69.6504 166.615 69.8906 166.17 70.3711C165.725 70.8457 165.449 71.5137 165.344 72.375H170.107V72.252C170.061 71.4258 169.838 70.7871 169.439 70.3359C169.041 69.8789 168.502 69.6504 167.822 69.6504Z" fill="#000B0D"/>
<path d="M143.888 37.1385C143.563 35.754 142.581 34.7505 141.547 34.7505C141.424 34.7505 141.296 34.7666 141.173 34.7934C141.072 34.8149 140.976 34.8524 140.885 34.8954C139.701 31.9761 137.893 30.0442 136.005 28.767C136.101 26.7063 137.275 25.4667 139.275 25.311C139.52 26.2233 140.341 26.9049 141.328 26.9049C142.507 26.9049 143.461 25.9443 143.461 24.7583C143.461 23.5723 142.507 22.6118 141.328 22.6118C140.331 22.6118 139.499 23.3094 139.264 24.2378C136.88 24.4041 135.312 25.8477 134.992 28.1445C131.691 26.3092 128.453 26.2716 128.192 26.2716C127.931 26.2716 124.453 26.3199 121.024 28.3699C120.741 25.8477 118.715 23.8514 116.192 23.6314C115.968 22.6976 115.131 22 114.133 22C112.955 22 112 22.9606 112 24.1465C112 25.3325 112.955 26.2931 114.133 26.2931C115.115 26.2931 115.936 25.6169 116.181 24.71C118.325 24.9354 120 26.76 120 28.9763C120 29.0031 120.011 29.0246 120.016 29.0514C117.611 30.8062 115.397 33.6611 114.539 38.3406C114.528 38.3835 114.523 38.4318 114.517 38.4747C114.384 38.4372 114.245 38.4103 114.101 38.4103C112.923 38.4103 112 39.6875 112 41.3189C112 42.9503 112.923 44.2274 114.101 44.2274C114.315 44.2274 114.528 44.1738 114.731 44.0826C115.104 45.5154 115.723 46.8623 116.576 48.0429C118.272 50.3934 121.616 53.2 127.915 53.2H128.203H128.507C134.805 53.2 138.149 50.3988 139.845 48.0429C141.381 45.9125 142.165 43.2454 142.101 40.4871C142.117 40.4871 142.139 40.4925 142.155 40.4925C142.277 40.4925 142.395 40.4764 142.512 40.4495C143.659 40.1812 144.267 38.7216 143.888 37.1385ZM141.333 23.685C141.92 23.685 142.4 24.168 142.4 24.7583C142.4 25.3486 141.92 25.8316 141.333 25.8316C140.747 25.8316 140.267 25.3486 140.267 24.7583C140.267 24.168 140.747 23.685 141.333 23.685ZM114.133 25.2198C113.547 25.2198 113.067 24.7368 113.067 24.1465C113.067 23.5562 113.547 23.0733 114.133 23.0733C114.72 23.0733 115.2 23.5562 115.2 24.1465C115.2 24.7368 114.72 25.2198 114.133 25.2198ZM114.491 42.9986C114.379 43.0898 114.245 43.1595 114.101 43.1595C113.611 43.1542 113.067 42.4029 113.067 41.3189C113.067 40.2349 113.611 39.4836 114.101 39.4836C114.192 39.4836 114.283 39.5104 114.368 39.5587C114.341 39.8431 114.325 40.1329 114.315 40.4173C114.315 40.4334 114.315 40.4549 114.315 40.471C114.309 40.7125 114.309 40.9486 114.315 41.1847C114.315 41.2599 114.32 41.3296 114.32 41.4047C114.331 41.5979 114.341 41.7911 114.357 41.9843C114.363 42.0594 114.368 42.1346 114.379 42.2097C114.405 42.4458 114.437 42.6766 114.475 42.9127C114.485 42.9342 114.485 42.9664 114.491 42.9986ZM138.981 47.4151C136.725 50.5437 133.205 52.1267 128.507 52.1267H128.203H127.915C123.216 52.1267 119.696 50.5437 117.44 47.4151C116.341 45.891 115.664 44.0557 115.451 42.1185C115.445 42.0755 115.445 42.0326 115.44 41.9897C115.408 41.6838 115.392 41.3779 115.387 41.0667C115.381 40.9325 115.387 40.7983 115.387 40.6588C115.387 40.4388 115.397 40.2241 115.413 40.0041C115.424 39.8485 115.435 39.6875 115.451 39.5319C115.483 39.1992 115.525 38.8611 115.584 38.5284C117.616 27.4737 127.771 27.3449 128.219 27.3449C128.608 27.3449 136.965 27.4522 140.053 35.6735L140.149 35.9525C140.288 36.3389 140.405 36.7306 140.512 37.1224C140.528 37.1814 140.544 37.2351 140.56 37.2941C140.667 37.6966 140.757 38.1098 140.837 38.5284C140.901 38.8826 140.944 39.2367 140.981 39.5909C140.987 39.6607 140.997 39.7251 141.003 39.7948C141.221 42.5692 140.512 45.29 138.981 47.4151ZM142.267 39.4138C142.192 39.4299 142.117 39.4299 142.032 39.4138C142.032 39.3924 142.027 39.3763 142.021 39.3548C141.984 39.0167 141.941 38.6786 141.877 38.3406V38.3352C141.877 38.3298 141.872 38.3245 141.872 38.3191C141.797 37.9059 141.707 37.5141 141.611 37.1278C141.605 37.1063 141.6 37.0795 141.589 37.058C141.488 36.6609 141.376 36.2799 141.253 35.915C141.307 35.8774 141.36 35.8506 141.419 35.8398C141.904 35.7271 142.592 36.3174 142.843 37.3853C143.099 38.4372 142.741 39.3011 142.267 39.4138Z" fill="#000B0D"/>
<path d="M128.267 36.0276C129.592 36.0276 130.667 35.3069 130.667 34.4177C130.667 33.5286 129.592 32.8078 128.267 32.8078C126.941 32.8078 125.867 33.5286 125.867 34.4177C125.867 35.3069 126.941 36.0276 128.267 36.0276Z" fill="#000B0D"/>
<path d="M121.333 39.2475C122.659 39.2475 123.733 38.5267 123.733 37.6376C123.733 36.7484 122.659 36.0276 121.333 36.0276C120.008 36.0276 118.933 36.7484 118.933 37.6376C118.933 38.5267 120.008 39.2475 121.333 39.2475Z" fill="#000B0D"/>
<path d="M135.2 33.8811C134.315 33.8811 133.493 34.0958 132.8 34.4553C132.8 34.4392 132.8 34.4285 132.8 34.4177C132.8 32.3463 130.768 30.6613 128.267 30.6613C125.765 30.6613 123.733 32.3463 123.733 34.4177C123.733 34.4338 123.733 34.4446 123.733 34.4553C123.035 34.0904 122.213 33.8811 121.333 33.8811C118.832 33.8811 116.8 35.5661 116.8 37.6375C116.8 39.709 118.832 41.394 121.333 41.394C123.835 41.394 125.867 39.709 125.867 37.6375C125.867 37.6214 125.867 37.6107 125.867 37.6C126.565 37.9649 127.387 38.1742 128.267 38.1742C129.147 38.1742 129.973 37.9595 130.667 37.6C130.667 37.6161 130.667 37.6268 130.667 37.6375C130.667 39.709 132.699 41.394 135.2 41.394C137.701 41.394 139.733 39.709 139.733 37.6375C139.733 35.5661 137.701 33.8811 135.2 33.8811ZM121.333 40.3207C119.424 40.3207 117.867 39.1187 117.867 37.6375C117.867 36.1564 119.424 34.9544 121.333 34.9544C123.243 34.9544 124.8 36.1564 124.8 37.6375C124.8 39.1187 123.243 40.3207 121.333 40.3207ZM124.8 34.4177C124.8 32.9366 126.357 31.7346 128.267 31.7346C130.176 31.7346 131.733 32.9366 131.733 34.4177C131.733 35.8988 130.176 37.1009 128.267 37.1009C126.357 37.1009 124.8 35.8988 124.8 34.4177ZM135.2 40.3207C133.291 40.3207 131.733 39.1187 131.733 37.6375C131.733 36.1564 133.291 34.9544 135.2 34.9544C137.109 34.9544 138.667 36.1564 138.667 37.6375C138.667 39.1187 137.109 40.3207 135.2 40.3207Z" fill="#000B0D"/>
<path d="M135.2 39.2475C136.525 39.2475 137.6 38.5267 137.6 37.6376C137.6 36.7484 136.525 36.0276 135.2 36.0276C133.875 36.0276 132.8 36.7484 132.8 37.6376C132.8 38.5267 133.875 39.2475 135.2 39.2475Z" fill="#000B0D"/>
<path d="M134.72 42.5746C134.485 42.3975 134.149 42.4458 133.973 42.6819C133.797 42.9181 133.845 43.2561 134.08 43.4332L134.832 44.0021C134.155 44.8607 131.979 47.3185 129.019 47.7639C127.147 48.0483 125.264 47.4687 123.424 46.0574L124.053 45.5851C124.288 45.4081 124.336 45.07 124.16 44.8339C123.984 44.5977 123.648 44.5494 123.413 44.7265L121.28 46.3364C121.045 46.5135 120.997 46.8516 121.173 47.0877C121.28 47.2273 121.44 47.3024 121.6 47.3024C121.712 47.3024 121.824 47.2648 121.92 47.1951L122.549 46.7228C122.565 46.7443 122.576 46.7657 122.603 46.7818C124.384 48.1986 126.224 48.9123 128.085 48.9123C128.453 48.9123 128.821 48.8855 129.189 48.8264C132.576 48.3113 134.949 45.6066 135.691 44.6514L136.219 45.0485C136.315 45.1183 136.427 45.1558 136.539 45.1558C136.699 45.1558 136.859 45.0807 136.965 44.9412C137.141 44.7051 137.093 44.367 136.859 44.1899L134.72 42.5746Z" fill="#000B0D"/>
<defs>
<filter id="filter0_d" x="11.5419" y="52" width="37.4581" height="38" filterUnits="userSpaceOnUse" color-interpolation-filters="sRGB">
<feFlood flood-opacity="0" result="BackgroundImageFix"/>
<feColorMatrix in="SourceAlpha" type="matrix" values="0 0 0 0 0 0 0 0 0 0 0 0 0 0 0 0 0 0 127 0"/>
<feOffset dy="4"/>
<feGaussianBlur stdDeviation="2"/>
<feColorMatrix type="matrix" values="0 0 0 0 0 0 0 0 0 0 0 0 0 0 0 0 0 0 0.25 0"/>
<feBlend mode="normal" in2="BackgroundImageFix" result="effect1_dropShadow"/>
<feBlend mode="normal" in="SourceGraphic" in2="effect1_dropShadow" result="shape"/>
</filter>
<filter id="filter1_d" x="29.5933" y="47.1821" width="34.8359" height="18.9644" filterUnits="userSpaceOnUse" color-interpolation-filters="sRGB">
<feFlood flood-opacity="0" result="BackgroundImageFix"/>
<feColorMatrix in="SourceAlpha" type="matrix" values="0 0 0 0 0 0 0 0 0 0 0 0 0 0 0 0 0 0 127 0"/>
<feOffset dy="4"/>
<feGaussianBlur stdDeviation="2"/>
<feColorMatrix type="matrix" values="0 0 0 0 0 0 0 0 0 0 0 0 0 0 0 0 0 0 0.25 0"/>
<feBlend mode="normal" in2="BackgroundImageFix" result="effect1_dropShadow"/>
<feBlend mode="normal" in="SourceGraphic" in2="effect1_dropShadow" result="shape"/>
</filter>
<filter id="filter2_d" x="11" y="22" width="68" height="68" filterUnits="userSpaceOnUse" color-interpolation-filters="sRGB">
<feFlood flood-opacity="0" result="BackgroundImageFix"/>
<feColorMatrix in="SourceAlpha" type="matrix" values="0 0 0 0 0 0 0 0 0 0 0 0 0 0 0 0 0 0 127 0"/>
<feOffset dy="4"/>
<feGaussianBlur stdDeviation="2"/>
<feColorMatrix type="matrix" values="0 0 0 0 0 0 0 0 0 0 0 0 0 0 0 0 0 0 0.25 0"/>
<feBlend mode="normal" in2="BackgroundImageFix" result="effect1_dropShadow"/>
<feBlend mode="normal" in="SourceGraphic" in2="effect1_dropShadow" result="shape"/>
</filter>
</defs>
</svg>
