<svg width="34" height="37" viewBox="0 0 34 37" fill="none" xmlns="http://www.w3.org/2000/svg">
<path d="M33.3632 10.1754C33.4111 10.1045 33.4366 10.0214 33.4367 9.9364C33.4368 9.85138 33.4114 9.76822 33.3637 9.69726C32.8064 8.85904 32.0588 8.15907 31.1796 7.65232C30.3427 7.17073 29.3909 6.9153 28.4209 6.91201H26.6654C25.9393 4.89093 24.5925 3.14076 22.8107 1.90279C21.0289 0.664813 18.8998 0 16.717 0C14.5342 0 12.4051 0.664813 10.6233 1.90279C8.84153 3.14076 7.49474 4.89093 6.76863 6.91201H5.0132C4.01901 6.93789 3.04694 7.20584 2.18432 7.69179C1.32169 8.17774 0.59553 8.86648 0.0710673 9.69613C0.0624227 9.7115 0.0547721 9.7274 0.0481608 9.74372C0.0405841 9.75736 0.0338147 9.77142 0.0278858 9.78583C-0.00925875 9.88243 -0.00929644 9.98901 0.02778 10.0856C0.0419554 10.1153 0.0561337 10.145 0.0703149 10.1747C0.627509 11.0128 1.375 11.7127 2.2541 12.2195C2.6586 12.4492 3.09062 12.6287 3.54022 12.7539C3.59371 13.2664 3.83258 13.7431 4.21347 14.0975C4.59436 14.4519 5.09203 14.6605 5.61618 14.6855C6.14032 14.7104 6.6562 14.55 7.07021 14.2334C7.48421 13.9168 7.76891 13.465 7.87262 12.96H14.5614C14.6628 13.4478 14.9328 13.8862 15.3256 14.2011C15.7184 14.516 16.2099 14.688 16.717 14.688C17.2241 14.688 17.7156 14.516 18.1084 14.2011C18.5012 13.8862 18.7712 13.4478 18.8726 12.96H25.1214C25.2237 13.4567 25.501 13.9021 25.9046 14.218C26.3082 14.5339 26.8123 14.7001 27.3283 14.6873C27.8443 14.6745 28.3392 14.4836 28.726 14.1481C29.1129 13.8127 29.367 13.3541 29.4436 12.8529C30.2452 12.6841 31.0045 12.3605 31.6774 11.9008C32.3504 11.4411 32.9234 10.8546 33.3632 10.1754ZM16.717 0.864016C18.6854 0.864675 20.6068 1.45482 22.2247 2.55567C23.8426 3.65652 25.0799 5.2157 25.7716 7.02508C23.2275 7.56531 20.6387 7.87709 18.037 7.95655L18.037 7.34401C18.0374 7.17648 18.0044 7.01049 17.9398 6.85542C18.1096 6.69492 18.2448 6.50243 18.3371 6.28947C18.4294 6.07651 18.477 5.84746 18.477 5.61601L18.477 4.75202C18.477 4.29372 18.2916 3.8542 17.9615 3.53013C17.6315 3.20607 17.1838 3.02402 16.717 3.02402C16.2502 3.02402 15.8026 3.20607 15.4725 3.53013C15.1425 3.8542 14.957 4.29372 14.957 4.75202V5.61601C14.9571 5.84746 15.0047 6.07651 15.097 6.28947C15.1893 6.50244 15.3244 6.69493 15.4942 6.85542C15.4296 7.01049 15.3966 7.17648 15.397 7.34401V7.95655C14.9568 7.94323 14.5168 7.92289 14.077 7.89551V7.09091L14.6081 6.56949C14.6897 6.48829 14.7353 6.3787 14.7349 6.26464C14.7345 6.15059 14.6882 6.04131 14.606 5.96066C14.5239 5.88001 14.4126 5.83453 14.2964 5.83414C14.1802 5.83374 14.0686 5.87847 13.9859 5.95857L13.3259 6.60656C13.2436 6.68775 13.1973 6.79751 13.197 6.91201V7.83497C11.3362 7.68356 9.48738 7.41302 7.66244 7.02508C8.35413 5.2157 9.59149 3.65651 11.2094 2.55566C12.8272 1.4548 14.7486 0.864663 16.717 0.864016ZM16.717 7.97799C16.5703 7.97799 16.4237 7.97343 16.277 7.97194V7.34401C16.2793 7.32452 16.283 7.3052 16.2881 7.28622C16.5687 7.36325 16.8654 7.36325 17.1459 7.28622C17.151 7.3052 17.1547 7.32452 17.157 7.34401V7.97195C17.0103 7.97344 16.8637 7.97799 16.717 7.97799ZM17.597 4.75202V5.61601C17.597 5.84517 17.5043 6.06493 17.3393 6.22696C17.1742 6.389 16.9504 6.48003 16.717 6.48003C16.4836 6.48003 16.2598 6.389 16.0948 6.22696C15.9297 6.06493 15.837 5.84517 15.837 5.61601L15.837 4.75202C15.837 4.52287 15.9297 4.30311 16.0948 4.14108C16.2598 3.97904 16.4836 3.88802 16.717 3.88802C16.9504 3.88802 17.1743 3.97904 17.3393 4.14108C17.5043 4.30311 17.597 4.52287 17.597 4.75202ZM5.0132 7.77599H7.03026C9.92158 8.41913 12.872 8.77223 15.836 8.82986L15.837 8.83007L15.8379 8.82988C16.131 8.83566 16.424 8.84198 16.717 8.84198C17.0101 8.84198 17.3031 8.83568 17.5961 8.82988L17.597 8.83007L17.5981 8.82986C20.5621 8.77223 23.5125 8.41913 26.4038 7.77599H28.4209C29.2364 7.77927 30.0364 7.99475 30.7395 8.4005C31.2488 8.6948 31.7067 9.06736 32.0959 9.50401H1.34026C1.79213 8.97612 2.35348 8.54893 2.98685 8.25094C3.62022 7.95296 4.31104 7.79104 5.0132 7.77599ZM5.71703 13.824C5.4397 13.8231 5.16973 13.7363 4.94562 13.5759C4.72152 13.4155 4.55473 13.1897 4.46903 12.9307C4.64979 12.9496 4.83142 12.9594 5.0132 12.96H6.95574C6.86543 13.212 6.69787 13.4303 6.47607 13.585C6.25426 13.7398 5.98911 13.8232 5.71703 13.824ZM16.717 13.824C16.445 13.8232 16.1798 13.7397 15.958 13.585C15.7362 13.4303 15.5686 13.212 15.4783 12.96H17.9557C17.8654 13.212 17.6978 13.4303 17.476 13.585C17.2542 13.7397 16.9891 13.8232 16.717 13.824ZM27.277 13.824C27.0049 13.8232 26.7398 13.7397 26.518 13.585C26.2962 13.4303 26.1286 13.212 26.0382 12.96H28.4208C28.4534 12.96 28.4852 12.9545 28.5176 12.9539C28.4283 13.2073 28.2609 13.4272 28.0386 13.5831C27.8163 13.739 27.5502 13.8232 27.277 13.824ZM28.9812 12.0607C28.7954 12.0842 28.6082 12.096 28.4209 12.096H5.0132C4.69118 12.0957 4.37013 12.0614 4.05556 11.9938C3.57721 11.8898 3.11815 11.7136 2.69474 11.4716L2.69391 11.4711C2.18485 11.1769 1.72713 10.8045 1.33815 10.368H32.0952C31.3007 11.2845 30.194 11.8861 28.9812 12.0607Z" fill="black"/>
<path d="M2.25478 12.2201L2.25378 12.2191L2.25478 12.2201Z" fill="black"/>
<path d="M15.0441 2.32341C15.5948 2.21451 16.1552 2.15979 16.717 2.16004C18.5304 2.1562 20.2958 2.73236 21.7459 3.80134C21.8392 3.8702 21.9565 3.89985 22.0721 3.88378C22.1876 3.86771 22.2919 3.80723 22.3621 3.71565C22.4322 3.62407 22.4624 3.50889 22.446 3.39544C22.4296 3.282 22.3681 3.17958 22.2748 3.11073H22.2747C20.6721 1.92925 18.7212 1.29225 16.717 1.29604C16.0968 1.29578 15.478 1.35623 14.87 1.47649C14.8133 1.48764 14.7593 1.50966 14.7113 1.54129C14.6633 1.57292 14.622 1.61354 14.59 1.66082C14.558 1.7081 14.5357 1.76112 14.5246 1.81684C14.5135 1.87257 14.5136 1.9299 14.5251 1.98557C14.5365 2.04123 14.559 2.09414 14.5913 2.14125C14.6236 2.18837 14.665 2.22877 14.7132 2.26015C14.7614 2.29153 14.8155 2.31326 14.8723 2.32412C14.929 2.33497 14.9874 2.33473 15.0441 2.32341Z" fill="black"/>
<path d="M16.7171 5.61601C16.8338 5.61601 16.9457 5.57049 17.0282 5.48948C17.1107 5.40846 17.1571 5.29858 17.1571 5.18401V4.75201C17.1571 4.63743 17.1107 4.52755 17.0282 4.44654C16.9457 4.36552 16.8338 4.32001 16.7171 4.32001C16.6004 4.32001 16.4885 4.36552 16.4059 4.44654C16.3234 4.52755 16.2771 4.63743 16.2771 4.75201V5.18401C16.2771 5.29858 16.3234 5.40846 16.4059 5.48948C16.4885 5.57049 16.6004 5.61601 16.7171 5.61601Z" fill="black"/>
<path d="M9.79795 13.4087C9.74239 13.3931 9.68425 13.3884 9.62685 13.3948C9.56945 13.4013 9.5139 13.4188 9.46339 13.4464C9.41288 13.4739 9.36839 13.511 9.33247 13.5554C9.29655 13.5999 9.26989 13.6508 9.25402 13.7053L3.09399 34.8733C3.07691 34.932 3.07269 34.9936 3.08161 35.054C3.09053 35.1144 3.11239 35.1723 3.14575 35.2238C3.17911 35.2753 3.2232 35.3193 3.27514 35.3529C3.32707 35.3864 3.38565 35.4088 3.44703 35.4185L4.30383 35.5542C5.78209 35.7883 7.26484 35.9804 8.75209 36.1303C8.80971 36.1364 8.86799 36.1312 8.92358 36.1151C8.97916 36.099 9.03096 36.0723 9.076 36.0365C9.12104 36.0007 9.15843 35.9565 9.18602 35.9065C9.21362 35.8564 9.23087 35.8015 9.2368 35.7449C9.24272 35.6883 9.2372 35.6311 9.22054 35.5766C9.20389 35.5221 9.17644 35.4714 9.13976 35.4274C9.10308 35.3833 9.0579 35.3468 9.00681 35.3199C8.95572 35.2931 8.89973 35.2764 8.84205 35.2708L8.84203 35.2708C7.37228 35.1225 5.90625 34.9326 4.44394 34.7012L4.07623 34.643L10.1001 13.9427C10.1322 13.8325 10.1184 13.7144 10.0617 13.6142C10.005 13.5141 9.91015 13.4401 9.79795 13.4087Z" fill="black"/>
<path d="M14.0621 36.4871C14.9516 36.5169 15.8414 36.5318 16.7316 36.5318C21.1759 36.5318 25.6121 36.1591 29.9918 35.4177C30.0527 35.4074 30.1107 35.3846 30.162 35.3509C30.2133 35.3171 30.2568 35.2731 30.2897 35.2218C30.3225 35.1704 30.344 35.1129 30.3527 35.0528C30.3614 34.9928 30.3571 34.9316 30.3402 34.8733L24.1802 13.7053C24.1476 13.5957 24.0722 13.5032 23.9704 13.4481C23.8686 13.3929 23.7487 13.3795 23.6369 13.4109C23.5251 13.4423 23.4305 13.5158 23.3737 13.6155C23.317 13.7151 23.3027 13.8328 23.3341 13.9427H23.334L29.358 34.643C25.1849 35.3239 20.9618 35.6666 16.7315 35.6678C15.8516 35.6678 14.9717 35.6531 14.0921 35.6236C14.0344 35.6216 13.9768 35.6309 13.9227 35.6508C13.8686 35.6707 13.819 35.7009 13.7768 35.7396C13.7345 35.7783 13.7005 35.8248 13.6766 35.8765C13.6526 35.9281 13.6393 35.9839 13.6373 36.0406C13.6354 36.0973 13.6448 36.1538 13.6651 36.2069C13.6853 36.26 13.7161 36.3087 13.7555 36.3502C13.795 36.3916 13.8423 36.4251 13.8949 36.4486C13.9475 36.4721 14.0043 36.4851 14.0621 36.4871Z" fill="black"/>
<path d="M12.245 27.7027C12.1517 27.9875 12.1464 28.293 12.23 28.5807C12.3135 28.8684 12.482 29.1253 12.7142 29.319C12.9464 29.5127 13.2319 29.6345 13.5345 29.6689C13.8372 29.7033 14.1435 29.6489 14.4146 29.5125L16.7639 28.3296C17.1226 28.1491 17.3948 27.8378 17.5223 27.4624L20.0867 26.1711C20.4038 26.0096 20.6801 25.7807 20.8956 25.5009L22.4492 26.2443C22.5011 26.2691 22.5575 26.2837 22.6152 26.2871C22.6729 26.2906 22.7307 26.2828 22.7853 26.2643C22.8399 26.2459 22.8903 26.217 22.9336 26.1794C22.9768 26.1418 23.0121 26.0962 23.0375 26.0452C23.0628 25.9942 23.0776 25.9388 23.0811 25.8821C23.0846 25.8255 23.0767 25.7688 23.0579 25.7151C23.0391 25.6615 23.0097 25.612 22.9714 25.5696C22.9331 25.5271 22.8866 25.4924 22.8347 25.4676L21.2977 24.7322C21.482 24.1477 21.4239 23.5155 21.1359 22.973C20.8768 22.4699 20.4425 22.0744 19.912 21.8588C19.3814 21.6432 18.7897 21.6216 18.2443 21.7978L17.375 20.511C17.3104 20.4155 17.21 20.3491 17.0956 20.3263C16.9812 20.3036 16.8623 20.3264 16.7651 20.3897C16.6678 20.4531 16.6002 20.5517 16.577 20.664C16.5539 20.7763 16.5771 20.8931 16.6416 20.9885L17.4365 22.1652L17.1558 22.3065L15.2577 21.9141C15.2011 21.9023 15.1427 21.9016 15.0859 21.9119C15.029 21.9223 14.9748 21.9436 14.9263 21.9746C14.8778 22.0056 14.836 22.0456 14.8033 22.0925C14.7706 22.1394 14.7477 22.1921 14.7357 22.2477C14.7238 22.3032 14.7232 22.3606 14.7339 22.4164C14.7445 22.4722 14.7663 22.5254 14.798 22.573C14.8296 22.6205 14.8705 22.6615 14.9183 22.6935C14.9661 22.7255 15.0198 22.748 15.0764 22.7596L15.9126 22.9324L14.3549 23.7167C14.2879 23.7504 14.2315 23.7958 14.169 23.8347L13.5567 22.662C13.5032 22.5605 13.4109 22.4839 13.3001 22.4491C13.1892 22.4142 13.0688 22.4239 12.9652 22.4761C12.8616 22.5282 12.7832 22.6185 12.7473 22.7273C12.7114 22.836 12.7209 22.9543 12.7736 23.0562L13.5017 24.4506C13.4809 24.4792 13.4607 24.5081 13.4413 24.5374L11.6962 24.1903C11.6395 24.1788 11.581 24.1783 11.5241 24.189C11.4671 24.1997 11.4129 24.2214 11.3646 24.2527C11.3162 24.284 11.2746 24.3245 11.2422 24.3716C11.2098 24.4188 11.1871 24.4718 11.1756 24.5275C11.1641 24.5833 11.164 24.6407 11.1751 24.6966C11.1863 24.7524 11.2086 24.8055 11.2407 24.8529C11.2728 24.9002 11.3142 24.9409 11.3624 24.9725C11.4106 25.0041 11.4646 25.026 11.5215 25.0371L13.0957 25.3502C12.9887 25.807 13.0311 26.2853 13.2169 26.7171L13.0095 26.8215C12.6458 27.0042 12.3708 27.3211 12.245 27.7027ZM18.2799 22.7115C18.4597 22.6205 18.6561 22.5652 18.8578 22.5489C19.0595 22.5325 19.2625 22.5555 19.4551 22.6164C19.6477 22.6773 19.8262 22.775 19.9803 22.9038C20.1343 23.0327 20.261 23.1901 20.3529 23.3671C20.4647 23.5796 20.5232 23.8156 20.5235 24.0548C20.5235 24.212 20.498 24.3682 20.448 24.5176L20.4464 24.5226C20.3854 24.7115 20.2867 24.8866 20.156 25.0376C20.0253 25.1886 19.8653 25.3126 19.6853 25.4022L17.5082 26.4985C17.4878 26.4288 17.4623 26.3607 17.4318 26.2947C17.4127 26.2582 17.3891 26.2249 17.3674 26.1906C17.3505 26.1637 17.3356 26.1349 17.3172 26.1093C17.154 25.8833 16.9304 25.7058 16.6712 25.5964L16.6674 25.5945C16.6381 25.5822 16.6073 25.574 16.5773 25.5634C16.3799 25.4927 16.1696 25.4628 15.9599 25.4758C15.7501 25.4888 15.5453 25.5443 15.3585 25.6388L14.0115 26.317C13.9533 26.1619 13.9217 25.9984 13.9179 25.8331C13.9179 25.676 13.9434 25.5198 13.9934 25.3705L13.9951 25.3653C14.0562 25.1764 14.155 25.0013 14.2857 24.8502C14.4164 24.6992 14.5764 24.5752 14.7564 24.4855L18.2799 22.7115ZM13.0824 27.9682C13.1366 27.8044 13.2548 27.6685 13.411 27.5903L15.4535 26.562L15.7602 26.4076C15.7824 26.3981 15.8051 26.3898 15.8283 26.3828C15.971 26.3253 16.1301 26.3207 16.276 26.3699C16.4218 26.4191 16.5445 26.5187 16.621 26.6502C16.6294 26.6637 16.6411 26.6742 16.6485 26.6885C16.6635 26.7202 16.6757 26.753 16.6852 26.7866C16.7076 26.8507 16.7198 26.9179 16.7213 26.9857L16.7119 27.0925L16.7095 27.1078L16.6906 27.1838C16.6364 27.3472 16.5183 27.4828 16.3624 27.5608L14.0133 28.7436C13.897 28.802 13.7658 28.8253 13.6361 28.8105C13.5064 28.7958 13.384 28.7436 13.2844 28.6607C13.1849 28.5778 13.1126 28.4677 13.0766 28.3445C13.0407 28.2213 13.0427 28.0903 13.0824 27.9682Z" fill="black"/>
</svg>
